<svg width="120" height="120" viewBox="0 0 120 120" fill="none" xmlns="http://www.w3.org/2000/svg">
<path d="M50.2377 29.6644C50.9628 34.097 51.6672 38.4031 46.8186 41.1858H46.8009C45.8964 41.6116 46.6413 42.924 47.457 42.3918C53.1503 39.1729 52.4876 34.7703 51.792 30.1492C51.4108 27.6158 51.0197 25.0169 51.6602 22.5116C52.2809 20.472 54.0188 19.0177 56.0051 17.9892C57.0337 17.4395 56.2179 15.8789 55.1893 16.4108C48.6129 19.7317 49.4379 24.7749 50.2377 29.6644Z" fill="#3A4B3C"/>
<path d="M41.977 55.3203C47.4925 53.6534 53.5044 53.5291 59.215 54.1145L59.1972 54.1323C60.084 54.2208 60.2081 52.8907 59.3392 52.8022C53.398 52.2701 47.3506 52.4474 41.6047 54.2386C35.6104 56.3489 38.7317 58.8317 43.2717 59.1333C47.7231 59.5412 52.1744 59.683 56.608 59.0623C56.8609 59.0071 57.1139 58.9575 57.3657 58.9081C58.6492 58.657 59.9003 58.4122 60.9529 57.4486C62.9028 54.546 57.5698 54.6042 54.7568 54.6352C54.2181 54.641 53.7718 54.6458 53.4868 54.6287C52.8448 54.67 52.2037 54.6953 51.5645 54.7207C49.1842 54.8151 46.8312 54.9082 44.5663 55.817C44.4954 55.8702 44.4067 55.9943 44.3713 56.1008C44.318 56.2603 44.4422 56.5441 44.4954 56.5441C45.4212 57.0641 46.4923 57.1033 47.5462 57.1418C47.966 57.1572 48.3831 57.1726 48.7871 57.218C50.2591 57.2888 51.731 57.3243 53.203 57.3243C53.3626 57.3243 53.5044 57.2003 53.5044 57.0405C53.5044 56.881 53.3803 56.7392 53.2207 56.7392C52.4886 56.7009 51.7423 56.6857 50.9914 56.6706C49.1091 56.6327 47.1991 56.5941 45.4147 56.1871C45.873 56.0475 46.4607 55.949 46.9604 55.8702C48.2551 55.5686 62.1589 54.5754 60.3323 56.8632C59.4778 57.6153 57.9645 57.8894 56.6337 58.1305L56.4839 58.1578C52.1744 58.7077 47.7053 58.5126 43.4135 58.087L43.2607 58.0654C42.0382 57.8913 40.4664 57.6679 39.5474 56.9875C39.4403 56.8706 39.3973 56.8446 39.3951 56.8156C39.3933 56.7918 39.4188 56.7658 39.4588 56.6859C39.927 56.0817 40.7942 55.7605 41.5779 55.4704C41.7143 55.4199 41.8482 55.3703 41.977 55.3203Z" fill="#3A4B3C"/>
<path d="M62.62 89.6365C57.5302 91.1616 52.139 91.5342 46.9605 90.6652C46.0914 90.5232 45.8964 91.8711 46.7831 91.9776C52.1921 92.6515 57.7253 92.0131 62.8151 90.2396C63.2053 90.1154 62.9924 89.5125 62.62 89.6365Z" fill="#3A4B3C"/>
<path d="M35.6637 66.6882C34.5995 69.1886 34.3513 72.1858 35.309 74.8283C35.3976 75.0943 35.2735 75.3779 35.0075 75.4667C34.7592 75.5554 34.4931 75.4312 34.3867 75.2006C33.0922 72.3631 33.0567 69.0646 34.0144 66.0673C34.1563 65.6062 34.6706 65.3404 35.1317 65.4999C35.6282 65.6595 35.8765 66.2271 35.6814 66.706L35.6637 66.6882Z" fill="#3A4B3C"/>
<path d="M42.9524 75.8923C42.3495 73.2854 42.4914 70.5719 42.9524 67.9295V67.9118C43.1476 66.7235 41.3031 66.4929 41.1967 67.699C40.9662 70.5187 41.0903 73.4449 41.9948 76.1583C42.0657 76.4067 42.3317 76.5485 42.5801 76.4952C42.846 76.4244 43.0234 76.1583 42.9524 75.8923Z" fill="#3A4B3C"/>
<path d="M52.0148 68.0181C51.6601 70.7492 51.6247 73.5512 51.8729 76.3179C51.9617 77.0626 50.8089 77.2046 50.7025 76.4774C50.2414 73.6222 50.0817 70.7492 50.2591 67.8408C50.2946 67.3441 50.7025 66.9718 51.199 67.0073C51.7134 67.0428 52.1035 67.5039 52.0148 68.0181Z" fill="#3A4B3C"/>
<path d="M68.8093 74.0656C69.7493 70.8913 69.696 67.5394 68.5256 64.4181C68.0822 63.3186 66.4152 64.028 66.8941 65.1098C67.4792 66.3866 67.7807 67.8408 67.8872 69.3129C67.9936 70.7847 67.8872 72.2744 67.5147 73.6755C67.4083 74.0303 67.6034 74.4026 67.9581 74.5089C68.3128 74.6155 68.7029 74.4204 68.8093 74.0656Z" fill="#3A4B3C"/>
<path d="M60.3144 66.5639C60.7933 69.5257 61.2011 72.5937 60.5982 75.715C60.5273 76.0873 60.1726 76.3179 59.8002 76.2469C59.4454 76.1761 59.2149 75.839 59.2681 75.4844C59.6938 72.7 59.1972 69.7562 58.5765 66.901C58.3105 65.7305 60.1194 65.3756 60.3144 66.5639Z" fill="#3A4B3C"/>
<path fill-rule="evenodd" clip-rule="evenodd" d="M27.0212 54.4161C27.0515 54.2433 27.0945 54.0658 27.151 53.8837C30.7512 47.4994 42.1722 45.9565 48.8404 45.1053C53.3094 44.6972 57.814 44.6441 62.3008 45.123C62.7796 45.1761 63.1344 45.6194 63.0811 46.0983C63.0493 46.3957 62.8774 46.6421 62.6381 46.7767C72.7884 49.1741 76.1125 51.917 75.0927 54.4096L75.0809 54.7397C77.9392 51.2208 82.7853 49.1821 87.2354 50.8157C95.3756 53.7242 94.4356 65.1808 89.0444 70.2883C88.4619 70.9417 87.5383 71.6407 86.7472 72.2393L86.7251 72.2562L86.6881 72.2841C86.5128 72.4166 86.3447 72.5439 86.1892 72.6647C83.709 74.7016 80.7775 75.9865 77.8586 77.2657C75.2884 78.392 72.7279 79.5141 70.4941 81.1418L70.4773 81.1544L70.4626 81.165L70.4345 81.1836C70.4084 81.2001 70.3815 81.2148 70.3541 81.2278C69.2662 82.877 67.9382 84.3543 66.3288 85.5733L66.3403 85.5811L66.3576 85.5934L66.3797 85.6107C69.6251 88.0759 70.5474 90.5765 66.0605 92.2434C61.9283 93.8928 57.5302 94.9924 53.0611 95.1341C48.3615 95.2762 30.1482 95.2407 37.9336 86.9231C38.021 86.8194 38.1162 86.7427 38.2153 86.6897C32.0127 82.6038 28.5931 74.4641 27.5767 67.1671C26.9027 63.1236 26.6899 59.0445 26.8141 54.9657C26.8141 54.7527 26.8925 54.5624 27.0212 54.4161ZM58.4506 46.5988C50.9554 46.2167 43.2737 47.035 36.1957 49.4146C34.3023 50.103 28.882 52.3231 28.5677 54.7796C28.5867 54.8616 28.5939 54.948 28.5875 55.0365H28.6053L28.5991 55.3918C28.6895 55.7743 28.9175 56.1599 29.3147 56.5439L29.4127 56.6115C40.8246 47.8172 60.532 48.8678 72.9301 55.1435C75.5648 52.8344 72.5582 50.0643 58.9313 47.2333C58.5702 47.1692 58.427 46.88 58.4506 46.5988ZM54.4622 60.1263C46.7792 60.7966 37.9512 61.3915 31.0335 57.6056C41.819 49.4555 60.2949 50.142 72.2017 55.6823C69.1633 57.6235 62.1604 59.1926 54.4622 60.1263ZM39.514 87.4628C39.522 87.6626 39.4544 87.8754 39.2815 88.0759L39.2992 88.0404L39.0824 88.2975C38.601 88.8675 38.1224 89.4339 37.845 89.9734C37.5612 90.612 37.6144 90.665 38.1819 91.1971C41.9743 93.4757 46.7556 93.5157 51.1963 93.5529C51.8017 93.5579 52.4008 93.5629 52.9902 93.5735C57.7963 93.3429 63.5245 92.3322 67.5502 89.7961C67.7453 89.5477 67.8162 89.3882 67.7808 89.1754C67.5319 88.3599 66.7982 87.7273 66.0919 87.1186C65.8921 86.9465 65.6945 86.7761 65.5107 86.604C65.4065 86.5193 65.3382 86.4083 65.3048 86.2886C65.1196 86.4076 64.9311 86.5234 64.7391 86.636C64.5503 86.7469 64.3583 86.8545 64.1629 86.9586C58.5411 90.0089 52.1567 89.672 46.0383 89.2997C43.6156 89.1468 41.4441 88.4935 39.514 87.4628ZM69.776 79.8423C69.7136 79.8908 69.6514 79.9397 69.5896 79.9891C69.4084 80.13 69.313 80.3395 69.3097 80.5528C65.5686 85.9309 58.8312 88.4491 52.1567 88.0759C51.8405 88.0687 51.5232 88.0627 51.2049 88.0566C47.615 87.9869 43.9228 87.9152 40.6647 86.3024C37.8058 84.7652 35.6008 82.6321 33.9078 80.1207C46.0109 83.3571 58.9825 82.4176 70.6446 78.2375C70.3824 78.796 70.0921 79.3309 69.776 79.8423ZM71.9121 78.4215C73.2494 77.653 74.6556 77.0308 76.0272 76.4777C80.3545 74.722 84.5399 72.3986 87.9094 69.1888C92.4494 64.826 93.6198 54.9125 86.6679 52.4119C82.3585 50.8867 77.7298 53.4051 75.513 57.218C75.3788 57.4432 75.1986 57.5714 75.0068 57.624L74.9877 58.6349V58.6401C74.9599 60.1259 74.932 61.6157 74.8738 63.1071C76.5738 59.881 78.7486 56.71 82.3585 55.5864C85.7634 54.6642 88.1399 58.1223 87.7321 61.2258C86.7691 68.7184 79.5855 72.8931 73.1573 75.1829C72.8093 76.293 72.3969 77.378 71.9121 78.4215ZM75.2115 66.3689C75.0881 66.6432 74.8881 66.7973 74.6676 66.8566C74.5054 69.1347 74.161 71.4745 73.5701 73.7417C79.2586 71.5169 85.5244 67.4981 86.2423 61.1373C86.5084 57.6079 83.724 55.7459 80.7269 58.1933C78.2263 60.1973 76.577 63.3186 75.2115 66.3689ZM73.8745 55.962C73.8446 56.8968 73.8224 57.8348 73.8 58.7744C73.6541 64.9152 73.5066 71.1177 71.2418 76.8227C58.9436 81.2423 45.2046 81.9236 32.7906 77.9673C32.7253 77.9459 32.6621 77.9314 32.6011 77.9231C29.5216 72.0414 28.6715 64.6604 28.5928 58.0108C30.2124 59.3208 32.6882 60.0982 34.3395 60.6167L34.5286 60.676C41.0194 62.6269 47.989 62.2366 54.6217 61.5452C63.4144 60.6331 70.886 58.5191 73.8745 55.962Z" fill="#3A4B3C"/>
<path d="M50.862 41.4519C53.7095 39.7769 53.4863 37.0726 53.2449 34.1468C52.9495 30.5672 52.6268 26.6564 57.8672 23.8947C58.9134 23.3273 59.7648 24.9589 58.6652 25.4731C54.4249 27.4204 54.6013 30.8475 54.7769 34.2624C54.9437 37.5032 55.11 40.7327 51.5004 42.6756C50.667 43.172 49.9753 41.8775 50.862 41.4519Z" fill="#3A4B3C"/>
<path d="M44.2647 99.0001C50.7024 99.9756 57.2286 99.7451 63.6308 98.7165V98.6988C64.7835 98.5037 64.4643 96.7478 63.3115 96.9606C57.14 98.0957 50.7024 98.4505 44.4598 97.6523C44.1052 97.5993 43.7505 97.8474 43.6972 98.2199C43.6441 98.5923 43.8924 98.9471 44.2647 99.0001Z" fill="#3A4B3C"/>
<path d="M59.4811 103.434C55.8987 103.877 52.334 103.753 48.8226 103.132C48.4502 103.061 48.2019 102.725 48.2729 102.352C48.3438 101.997 48.663 101.749 49.0354 101.802C52.405 102.263 55.8987 102.246 59.2328 101.696C60.4033 101.501 60.687 103.292 59.4988 103.452L59.4811 103.434Z" fill="#3A4B3C"/>
</svg>
