<svg width="903" height="350" viewBox="0 0 903 350" fill="none" xmlns="http://www.w3.org/2000/svg">
<g clip-path="url(#clip0_1827_861)">
<path fill-rule="evenodd" clip-rule="evenodd" d="M110.563 95.836C111.057 99.7693 113.189 103.183 116.645 105.454C119.195 107.134 122.155 107.994 125.025 107.994H125.045C127.165 107.994 129.245 107.524 131.075 106.564C134.035 105.004 136.055 102.354 136.935 98.8942C142.925 105.164 150.345 107.304 157.715 104.744C164.905 102.254 170.73 95.743 173.359 88.022C173.979 88.0753 174.582 88.1042 175.175 88.1042L175.165 88.1242C181.255 88.1242 185.775 85.2942 188.095 82.4042C193.495 75.6842 197.755 70.3842 206.575 68.5642C210.075 67.8342 217.335 66.3442 223.555 67.7842C224.195 67.9342 224.845 67.6842 225.225 67.1542C225.605 66.6242 225.625 65.9242 225.275 65.3742C221.615 59.5642 214.845 55.5442 206.715 54.3442C200.635 53.4542 194.745 54.2742 190.115 56.5542C192.185 47.3242 187.715 38.5742 181.625 33.4442C175.795 28.5342 166.645 25.3842 157.315 29.9442C158.505 22.7842 156.385 16.8142 151.335 13.5642C146.123 10.2147 139.21 10.7392 133.52 14.7282C130.376 5.89048 121.764 -1.56553 108.385 0.284029C99.1216 1.57011 89.4628 8.03533 86.9511 19.4778C74.2433 16.9456 62.2483 21.4988 55.3549 31.6041C49.2708 40.5158 48.9111 51.491 54.2225 60.8943C41.0066 60.8613 23.192 69.8028 22.2248 70.2941C21.6048 70.6041 21.2548 71.2841 21.3648 71.9641C21.4748 72.6441 22.0048 73.1841 22.6848 73.2941C22.8548 73.3141 39.5448 76.0941 52.3948 79.8341C59.6446 81.9441 64.4346 85.5339 69.0644 89.0039C75.7145 93.9939 82.5748 99.1341 96.1348 99.1341V99.1441C96.7948 99.1441 97.4748 99.1341 98.1648 99.1041C102.91 98.9345 107.047 97.725 110.563 95.836ZM105.395 46.954C101.685 46.954 98.0347 45.814 94.8247 43.574C89.2947 39.724 86.1247 33.354 86.3447 26.524C86.2973 25.1804 86.337 23.8869 86.4563 22.644C72.837 19.8403 62.8632 26.2709 57.9949 33.4041C52.2053 41.8824 52.2895 52.4888 58.1815 61.2169C60.5676 61.6323 62.6846 62.4727 64.3648 63.8741C72.0648 70.2941 81.0248 69.1641 86.0948 65.3941C90.8848 61.8341 92.3448 56.4241 89.9948 50.9141C88.2748 46.8841 85.7048 44.6741 82.7448 44.6741H82.6848C79.9148 44.7041 77.1048 46.7341 75.9848 49.5141C75.3748 51.0441 74.7948 54.0341 77.7948 56.9841C78.4248 57.6041 78.4348 58.6141 77.8148 59.2441C77.1948 59.8741 76.1848 59.8841 75.5548 59.2641C72.3848 56.1641 71.4648 52.1741 73.0148 48.3141C74.6148 44.3241 78.5848 41.5141 82.6548 41.4741H82.7448C85.2948 41.4741 89.9148 42.5641 92.9348 49.6641C95.8548 56.5241 93.9648 63.5341 87.9948 67.9641C79.3648 74.3741 68.6248 71.6141 62.3048 66.3341C55.6448 60.7741 38.2148 66.6241 28.1748 71.0341C34.1948 72.1541 44.5848 74.2441 53.2748 76.7741C61.0848 79.0441 66.1148 82.8141 70.9748 86.4641C77.8048 91.5841 84.2448 96.4041 98.0448 95.9141C103.162 95.7301 107.482 94.1908 110.981 91.8682C111.111 91.7423 111.263 91.6387 111.429 91.5631C118.469 86.6557 122.038 78.5475 121.925 72.1941C121.875 69.3541 120.935 62.7441 113.365 62.7441C108.345 62.7441 106.215 65.6841 105.395 67.4341C104.045 70.3141 104.275 73.8741 105.945 75.8841C107.065 77.2441 108.655 77.6641 110.675 77.1441C111.525 76.9241 112.405 77.4341 112.625 78.2941C112.845 79.1541 112.335 80.0241 111.475 80.2441C108.245 81.0841 105.415 80.2541 103.485 77.9341C101.025 74.9641 100.615 70.0841 102.495 66.0741C104.445 61.9241 108.405 59.5441 113.365 59.5441C117.035 59.5441 120.075 60.8441 122.165 63.3041C124.035 65.5141 125.065 68.5741 125.125 72.1341C125.255 79.2428 121.355 88.2902 113.652 93.8943C113.586 98.8409 116.567 101.565 118.405 102.774C121.845 105.034 126.335 105.424 129.585 103.724C132.515 102.194 134.125 99.2042 134.235 95.0842C134.255 94.4042 134.695 93.8142 135.345 93.6042C135.995 93.3942 136.695 93.6242 137.115 94.1642C142.645 101.494 149.595 104.174 156.675 101.724C165.445 98.6842 171.895 88.7342 171.675 78.5842C171.445 68.0342 163.545 60.9742 155.845 59.4642C148.715 58.0642 142.715 61.2542 139.775 68.0042C137.755 72.6542 138.155 76.6642 140.905 79.2942C143.695 81.9742 148.485 82.8042 151.805 81.1942C153.415 80.4142 155.265 78.7242 154.905 75.1442C154.815 74.2642 155.465 73.4842 156.335 73.3942C157.215 73.2942 157.995 73.9442 158.085 74.8242C158.495 78.9842 156.715 82.3542 153.195 84.0642C148.675 86.2642 142.445 85.1942 138.685 81.5942C134.955 78.0142 134.275 72.5942 136.835 66.7142C140.365 58.6042 147.885 54.6242 156.455 56.3142C165.405 58.0742 174.605 66.2742 174.865 78.5142C174.91 80.6589 174.689 82.7967 174.235 84.8778C179.703 85.1709 183.747 82.7026 185.615 80.3842L185.624 80.373C191.19 73.4477 196 67.4631 205.945 65.4142L205.989 65.4051C208.98 64.7929 214.533 63.6561 220.165 64.0542C216.795 60.6642 211.915 58.3342 206.255 57.5042C199.225 56.4642 192.285 58.0442 188.155 61.6342C187.585 62.1342 186.745 62.1542 186.145 61.7042C185.545 61.2442 185.335 60.4342 185.655 59.7542C189.985 50.4642 185.715 41.0642 179.565 35.8842C173.945 31.1542 164.755 28.3142 155.795 34.5442C155.235 34.9342 154.485 34.9242 153.935 34.5242C153.385 34.1242 153.145 33.4142 153.355 32.7642C155.635 25.4042 154.235 19.2342 149.605 16.2642C145.015 13.3142 138.625 14.2742 133.715 18.6542C133.055 19.2442 132.045 19.1842 131.455 18.5242C131.216 18.2568 131.083 17.9319 131.054 17.6008C128.153 6.09813 117.822 2.20132 108.825 3.44403C98.8547 4.82403 89.0247 12.474 89.5447 26.454V26.574C89.3447 32.334 92.0047 37.714 96.6547 40.944C101.045 43.994 106.415 44.574 111.385 42.534C118.085 39.784 121.795 35.234 121.575 30.034C121.385 25.644 118.295 21.534 114.225 20.264C109.875 18.914 105.435 20.864 101.705 25.784C101.175 26.494 100.165 26.624 99.4647 26.094C98.7647 25.564 98.6247 24.554 99.1547 23.854C103.685 17.874 109.525 15.444 115.175 17.214C120.575 18.894 124.515 24.114 124.765 29.904C125.055 36.524 120.615 42.214 112.595 45.504C110.235 46.474 107.795 46.954 105.395 46.954Z" fill="#F5F1EA"/>
<path fill-rule="evenodd" clip-rule="evenodd" d="M693.935 138.404C700.028 138.404 705.881 136.748 710.16 133.465C711.733 138.111 715.807 142.009 721.905 144.623C726.413 146.552 732.149 147.702 738.085 147.703C745.712 147.702 753.668 145.802 759.715 141.243C764.585 137.574 770.015 130.764 769.095 118.904C774.154 118.731 781.783 117.244 786.989 112.663C788.514 117.391 793.102 121.305 799.635 123.254C802.075 123.984 804.745 124.384 807.475 124.384V124.364C813.695 124.364 820.165 122.264 824.635 117.064C830.505 122.184 836.825 124.564 843.435 124.144C851.145 123.654 858.705 119.324 864.725 111.944C870.775 104.524 870.995 92.9036 865.285 83.0136C860.616 74.928 853.183 70.0679 845.14 69.5624C846.676 63.1193 844.241 56.5427 838.645 52.1938C833.048 47.8485 825.747 46.8304 819.173 49.2642C819.782 47.1108 820.128 44.8303 820.195 42.4439C820.565 29.4639 812.615 16.4439 801.295 11.4839C795.105 8.77388 782.795 6.33388 768.375 19.2939C763.975 9.61388 754.265 5.93388 746.105 6.63388C737.194 7.42193 730.278 12.8296 727.597 20.7917C725.851 17.6234 723.451 14.8117 720.555 12.7537C716.215 9.6737 707.145 5.7437 694.495 13.2337C685.855 4.0037 677.745 5.2737 673.595 6.9137C671.202 7.85873 669.02 9.35096 667.172 11.2048C655.765 5.9278 642.622 6.24337 631.965 12.0437C623.411 16.6873 617.797 24.3795 616.512 33.1599C612.831 32.1432 608.837 31.6419 604.745 31.7736C590.515 32.2336 580.045 39.8436 576.535 52.2136C569.335 53.5736 563.815 58.2536 560.925 65.5036C557.863 73.1958 558.339 82.4784 561.883 89.6668C555.905 89.2381 542.542 88.6845 533.165 91.27C529.915 92.16 523.125 94.42 517.375 96.64C505.965 101.05 505.275 102.62 505.555 104.21C505.915 106.28 508.555 106.47 513.285 106.09C528.885 104.84 546.765 118.87 558.855 129.53C565.255 135.17 580.085 140.72 591.985 140.72L591.995 140.74C593.055 140.74 594.085 140.7 595.085 140.61C600.169 140.151 603.856 138.494 606.057 135.71C609.92 140.226 617.361 145.089 631.499 145.09C633.938 145.089 646.459 144.646 654.485 135.97C658.891 131.208 660.968 124.961 660.683 117.376C662.583 117.698 664.623 117.67 666.765 117.284C666.785 124.204 670.665 130.294 677.655 134.234C682.615 137.024 688.385 138.414 693.965 138.414L693.935 138.404ZM715.245 49.2137C710.615 49.2137 704.565 47.0537 701.925 44.8437C697.235 40.9237 696.115 34.1237 699.385 29.3737C702.235 25.2237 708.595 22.6337 717.855 27.8037C718.625 28.2337 718.905 29.2137 718.475 29.9837C718.045 30.7537 717.065 31.0337 716.295 30.6037C708.915 26.4837 704.085 28.2037 702.025 31.1937C699.965 34.1837 700.135 39.1937 703.975 42.4037C706.165 44.2337 712.695 46.5537 716.595 45.9337C722.195 45.0637 725.955 41.7237 727.175 36.5337C728.915 29.1437 725.275 20.0437 718.705 15.3837C712.105 10.6937 703.705 11.1537 695.055 16.6637C694.385 17.0937 693.505 16.9637 692.985 16.3637C687.285 9.8137 680.815 7.5137 674.765 9.9037C668.645 12.3237 664.035 19.3237 664.265 25.8437C664.455 31.1037 667.745 35.0037 673.515 36.8137C678.815 38.4737 681.925 36.4237 683.305 35.0437C685.325 33.0337 686.165 29.9937 685.395 27.4937C684.675 25.1637 682.665 23.5737 679.725 23.0237C678.855 22.8637 678.285 22.0237 678.445 21.1537C678.605 20.2837 679.445 19.7037 680.315 19.8737C684.415 20.6437 687.375 23.0737 688.455 26.5437C689.585 30.2037 688.455 34.4337 685.565 37.3037C682.345 40.5037 677.615 41.4337 672.565 39.8537C665.505 37.6437 661.315 32.5737 661.075 25.9537C660.918 21.6721 662.422 17.3115 665.008 13.7458C654.713 9.28486 643.014 9.67864 633.495 14.8637C625.765 19.0737 620.715 25.9937 619.645 33.8638C619.631 33.9634 619.609 34.0596 619.578 34.1517C626.208 36.6259 631.484 40.8431 633.925 45.9936C642.315 40.6836 653.345 40.9036 662.625 46.7436C669.979 51.3713 674.307 58.4332 674.318 65.4218C674.632 65.2457 674.951 65.073 675.275 64.9038C682.285 61.2438 691.605 59.3338 701.475 59.4838C718.403 59.7676 736.061 66.3213 739.867 78.3773C740.602 77.4225 741.432 76.4863 742.355 75.5735C753.945 64.1235 771.395 68.1635 782.645 78.0735C791.793 86.1282 797.411 98.9631 789.657 109.713C789.967 114.201 794.224 118.293 800.555 120.184C807.945 122.384 817.805 121.264 823.145 113.804C823.415 113.424 823.835 113.184 824.295 113.144C824.755 113.104 825.215 113.254 825.545 113.574C831.105 118.864 837.055 121.354 843.235 120.954C849.945 120.534 856.875 116.514 862.245 109.924C868.265 102.544 866.725 91.8936 862.515 84.6236C858.635 77.9036 850.835 71.3236 840.625 72.9836C836.275 73.6936 832.405 76.5136 830.245 80.5236C828.495 83.7936 828.225 87.2936 829.515 90.1336C831.625 94.7836 834.855 97.3936 838.615 97.4636C841.775 97.5036 844.905 95.7336 846.235 93.0936C846.915 91.7336 847.365 89.6336 845.595 87.3636C845.055 86.6636 845.175 85.6636 845.875 85.1136C846.575 84.5736 847.575 84.6936 848.125 85.3936C850.265 88.1536 850.625 91.4836 849.095 94.5236C847.215 98.2736 842.965 100.734 838.555 100.654C835.625 100.594 830.175 99.3236 826.605 91.4436C824.905 87.6936 825.205 83.1536 827.435 79.0036C830.055 74.1136 834.795 70.6836 840.115 69.8136C840.685 69.7208 841.254 69.6502 841.822 69.6013C843.46 64.1581 841.489 58.4586 836.685 54.7238C831.187 50.4529 823.703 50.0089 817.527 53.5622C814.533 59.6476 809.121 64.3743 801.755 67.1139C796.415 69.1039 790.995 70.1039 786.015 70.1039C781.575 70.1039 777.485 69.3139 774.085 67.7139C769.085 65.3739 765.585 61.4339 763.665 56.0039C761.215 49.0439 764.045 41.8239 770.885 37.5939C777.355 33.5939 784.885 33.9039 789.195 38.3539C790.645 39.8539 792.885 44.4339 791.715 48.7339C791.115 50.9239 789.385 53.8139 784.505 55.1639C783.655 55.4039 782.775 54.9039 782.535 54.0439C782.295 53.1839 782.795 52.3139 783.655 52.0739C786.405 51.3139 788.085 49.9039 788.625 47.8839C789.435 44.8939 787.695 41.3939 786.895 40.5739C783.095 36.6539 776.805 37.6839 772.565 40.3039C768.185 43.0139 764.345 48.2839 766.685 54.9339C768.305 59.5239 771.245 62.8539 775.435 64.8139C781.905 67.8439 791.315 67.5739 800.635 64.1139C814.475 58.9539 816.825 48.2639 816.995 42.3539C817.325 30.6239 810.185 18.8739 800.005 14.4139C790.165 10.1039 779.105 13.2239 768.865 23.2139C768.475 23.5939 767.905 23.7539 767.375 23.6239C766.845 23.4939 766.405 23.1039 766.235 22.5839C762.955 12.8539 753.905 9.16388 746.385 9.82388C739.725 10.4039 731.395 14.7739 729.825 25.1439C729.799 25.3194 729.744 25.4844 729.667 25.6347C730.875 29.4897 731.156 33.5519 730.285 37.2537C728.765 43.6937 723.955 48.0037 717.085 49.0737C716.505 49.1637 715.885 49.2037 715.245 49.2037V49.2137ZM737.365 82.1238C737.371 82.2046 737.384 82.2834 737.402 82.3599C736.221 84.8462 735.648 87.4085 735.715 89.9735C735.855 94.9035 738.345 99.7835 742.755 103.694C746.235 106.784 750.765 107.653 755.185 106.093C759.655 104.513 762.995 100.813 763.685 96.6735C764.305 92.9635 762.725 89.3935 759.235 86.6235C758.545 86.0735 757.535 86.1935 756.985 86.8835C756.435 87.5735 756.555 88.5835 757.245 89.1335C759.815 91.1735 760.955 93.6035 760.525 96.1535C760.025 99.1235 757.455 101.904 754.115 103.084C750.825 104.244 747.455 103.594 744.875 101.304C741.145 97.9835 739.025 93.9235 738.915 89.8835C738.805 85.7335 740.715 81.6835 744.605 77.8435C754.805 67.7635 770.395 71.5335 780.535 80.4635C788.715 87.6735 793.805 99.0535 786.755 108.264C781.995 114.494 772.005 115.874 767.385 115.714C766.905 115.694 766.465 115.884 766.155 116.234C765.845 116.584 765.695 117.054 765.755 117.514C766.915 126.584 764.165 133.904 757.815 138.693C748.015 146.083 732.655 145.753 723.165 141.693C717.249 139.155 713.6 135.351 712.8 130.916C717.346 125.55 718.24 118.081 715.025 110.634C712.005 103.634 706.735 99.5038 700.585 99.3038C695.785 99.1738 691.365 101.604 689.345 105.564C687.135 109.884 688.095 115.244 691.975 120.254C692.515 120.954 693.515 121.084 694.215 120.544C694.915 120.004 695.045 119.004 694.505 118.304C691.365 114.254 690.545 110.244 692.195 107.024C693.655 104.164 696.895 102.414 700.485 102.504C705.355 102.664 709.585 106.084 712.095 111.904C715.255 119.224 713.755 126.524 708.205 130.934C701.115 136.394 688.375 136.604 679.205 131.434C675.355 129.264 669.045 124.294 670.045 115.414C670.105 114.884 669.905 114.364 669.495 114.014C669.085 113.674 668.535 113.554 668.025 113.694C662.425 115.274 657.805 114.154 654.655 110.464C650.755 105.904 649.845 98.0638 652.535 92.2338C653.695 89.7238 656.565 85.5138 662.785 85.5138C663.595 85.5138 664.275 84.9038 664.375 84.1038C664.966 79.2215 667.686 73.979 673.167 69.8998C673.298 69.8295 673.419 69.7411 673.526 69.6368C679.459 65.3695 688.505 62.4447 701.415 62.6738C718.055 62.9638 736.305 69.8738 737.365 82.1238ZM657.429 116.424C655.463 115.581 653.712 114.286 652.235 112.554C647.505 107.014 646.415 97.9138 649.645 90.9038C649.674 90.8396 649.704 90.7757 649.735 90.7122C649.761 90.6573 649.787 90.6026 649.814 90.5481C649.747 90.3986 649.703 90.2361 649.685 90.0639C648.315 77.3639 635.945 71.5339 625.025 71.4939H624.895C613.485 71.4939 601.325 77.4139 599.785 90.6839C599.685 91.5439 598.925 92.1739 598.075 92.0939C593.105 91.7139 588.795 93.8939 586.255 98.0939C585.878 98.7181 585.551 99.3674 585.274 100.034C585.24 100.162 585.191 100.285 585.128 100.399C583.516 104.587 583.838 109.402 586.115 113.024C588.956 117.528 594.434 119.739 601.631 119.304C602.141 116.593 603.225 113.989 604.865 111.71C609.035 105.93 615.825 103.29 623.505 104.46C630.625 105.55 635.555 109.04 637.055 114.05C638.205 117.92 637.055 122.01 634.025 124.73C630.275 128.1 624.715 128.6 618.765 126.11C617.945 125.77 617.565 124.83 617.905 124.02C618.245 123.2 619.185 122.82 619.995 123.16C624.755 125.16 629.085 124.86 631.885 122.35C633.985 120.47 634.785 117.64 633.995 114.97C632.865 111.19 628.875 108.52 623.025 107.62C616.575 106.63 610.915 108.81 607.465 113.58C603.995 118.39 603.515 124.96 606.255 130.31C608.465 134.63 614.685 141.89 631.505 141.89C637.575 141.89 646.615 139.77 652.145 133.8C656.143 129.477 657.921 123.631 657.429 116.424ZM601.297 122.53C600.79 122.553 600.296 122.564 599.815 122.564L599.795 122.554C589.905 122.554 585.315 117.774 583.395 114.724C580.988 110.898 580.337 106.013 581.436 101.475C581.039 101.494 580.646 101.504 580.255 101.504L580.235 101.514C573.985 101.514 568.535 98.9236 564.635 94.0336C564.378 93.711 564.129 93.3802 563.889 93.0419C560.303 92.7247 544.283 91.5264 534.015 94.36C528.205 95.96 515.645 100.43 510.615 103.05C511.245 103.04 512.045 103 513.025 102.92C529.835 101.57 548.435 116.11 560.965 127.15C567.315 132.74 583.465 138.44 594.785 137.42C598.905 137.04 601.935 135.76 603.545 133.72C603.731 133.487 603.968 133.319 604.227 133.219C603.911 132.714 603.639 132.228 603.405 131.77C601.925 128.879 601.231 125.69 601.297 122.53ZM582.586 98.1636C574.639 99.0806 569.827 95.3707 567.155 92.0236C562.005 85.5536 560.645 74.8936 563.915 66.6736C566.495 60.1936 571.515 56.1136 578.055 55.1936C578.705 55.1036 579.225 54.6236 579.385 53.9936C582.235 42.4936 591.755 35.3836 604.865 34.9636C617.495 34.5636 629.015 40.5636 631.665 48.9336C631.825 49.4236 632.205 49.8136 632.705 49.9736C633.195 50.1336 633.745 50.0436 634.155 49.7236C643.245 42.8036 654.255 45.2436 660.925 49.4436C668.124 53.9808 672.001 61.0383 670.95 67.5897C665.731 71.4408 662.477 76.4756 661.415 82.3838C657.833 82.6994 654.712 84.2347 652.36 86.786C649.347 74.1633 636.472 68.3405 625.035 68.2939H624.885C618.075 68.2939 611.575 70.1939 606.585 73.6539C601.265 77.3439 597.915 82.5739 596.815 88.8439C591.235 88.8739 586.435 91.5839 583.505 96.4339C583.165 96.9947 582.859 97.5725 582.586 98.1636Z" fill="#F5F1EA"/>
<path fill-rule="evenodd" clip-rule="evenodd" d="M489.565 171.5C477.445 170.5 469.845 163.83 462.505 157.38L462.487 157.365C456.126 151.782 450.103 146.495 441.426 145.04C441.349 145.539 441.252 146.039 441.135 146.54C438.835 156.44 428.755 165.09 417.165 167.11C415.405 167.42 413.655 167.57 411.945 167.57L411.935 167.55C402.227 167.55 393.501 162.668 387.372 153.674C387.33 153.721 387.287 153.768 387.245 153.814C383.105 158.334 377.505 160.694 371.245 160.694L371.275 160.724C368.705 160.724 366.015 160.324 363.275 159.514C359.235 158.324 351.175 154.244 348.645 148.484C344.455 151.314 339.515 152.554 334.485 151.994C328.225 151.294 322.375 147.884 318.405 142.644C310.235 133.714 316.345 121.154 319.075 116.534C316.015 115.314 310.365 112.384 308.225 106.754C306.585 102.444 307.345 97.524 310.485 92.114C299.525 86.054 298.165 72.404 302.655 62.104C305.295 56.054 309.715 51.294 315.085 48.704C320.585 46.054 326.805 45.794 333.195 47.914C332.795 38.684 337.205 30.634 345.805 25.054C360.595 15.454 385.095 14.844 399.325 23.714C407.345 28.714 411.285 35.994 410.795 44.834C420.185 44.984 427.755 49.244 432.235 56.934C435.9 63.2302 437.19 71.2077 436.183 79.0846C451.895 75.4424 460.174 95.2538 468.199 114.457L468.205 114.47L468.206 114.473C475.436 131.782 482.916 149.69 495.525 153.56C501.875 155.51 509.075 153.79 517.545 148.3C518.745 146.82 519.625 146.07 520.725 146.3C521.375 146.44 521.895 146.94 522.065 147.6C522.475 149.18 520.435 152.98 518.965 154.47C513.195 165.18 502.555 171.5 490.365 171.5H489.565ZM391.865 131.824C394.249 137.875 393.244 145.212 389.431 151.006C389.468 151.052 389.502 151.1 389.535 151.15C396.005 161.15 405.875 165.82 416.605 163.95C426.985 162.14 435.985 154.51 438.005 145.81C439.675 138.65 436.395 131.66 428.775 126.1C424.995 123.34 420.825 122.81 417.345 124.62C414.155 126.28 412.145 129.59 412.215 133.05C412.295 137.15 415.185 140.74 420.355 143.17C421.155 143.55 421.495 144.5 421.125 145.3C420.745 146.1 419.795 146.44 418.995 146.07C412.765 143.13 409.135 138.41 409.025 133.12C408.935 128.46 411.625 124.01 415.875 121.79C420.475 119.39 425.875 120.02 430.675 123.52C437.768 128.694 441.553 135.066 441.652 141.833C451.407 143.375 458.123 149.265 464.625 154.98L464.629 154.983C471.887 161.362 478.747 167.39 489.795 168.31C501.055 168.48 510.915 162.74 516.185 152.87C508.155 157.39 501.065 158.62 494.575 156.63C480.525 152.32 472.755 133.71 465.245 115.71C455.785 93.0688 448.55 78.4257 435.585 82.5717C434.637 86.9635 432.965 91.24 430.585 95.084C424.295 105.244 414.365 110.424 402.605 109.664C382.555 109.964 371.365 99.164 369.095 88.334C367.335 79.904 370.595 68.744 385.025 62.704C394.665 58.664 401.055 62.224 404.015 64.704C408.855 68.764 411.225 75.384 409.915 81.184C408.835 85.974 405.485 89.324 400.485 90.624C399.635 90.844 398.755 90.334 398.535 89.474C398.315 88.614 398.825 87.744 399.685 87.524C403.465 86.544 405.995 84.034 406.795 80.484C407.825 75.894 405.845 70.414 401.965 67.164C397.825 63.694 392.255 63.164 386.265 65.664C375.695 70.094 370.315 78.534 372.235 87.694C374.235 97.244 384.375 106.724 402.625 106.484H402.755C413.295 107.174 422.215 102.534 427.865 93.414C434.405 82.854 435.075 68.194 429.465 58.554C426.535 53.524 420.645 47.604 409.105 48.054C408.645 48.074 408.185 47.884 407.865 47.544C407.545 47.204 407.395 46.734 407.455 46.264C408.725 35.724 402.815 29.664 397.625 26.424C384.345 18.144 361.405 18.744 347.545 27.734C341.665 31.544 334.995 38.524 336.595 50.094C336.675 50.664 336.445 51.234 335.985 51.584C335.525 51.934 334.915 52.004 334.385 51.784C320.545 45.904 309.935 53.364 305.565 63.374C300.025 76.074 305.305 86.374 313.395 89.994C313.825 90.184 314.145 90.554 314.275 91.004C314.405 91.454 314.335 91.934 314.085 92.334C310.765 97.434 309.785 101.894 311.195 105.594C313.545 111.774 321.835 114.114 321.915 114.134C322.415 114.274 322.825 114.644 322.995 115.134C323.175 115.624 323.095 116.174 322.805 116.594L322.798 116.605C322.477 117.077 312.588 131.635 320.795 140.514C320.835 140.554 320.865 140.594 320.895 140.634C324.335 145.214 329.405 148.184 334.815 148.794C339.745 149.354 344.595 147.844 348.465 144.564C348.915 144.184 349.525 144.084 350.075 144.294C350.625 144.504 351.005 144.994 351.085 145.574C351.765 150.654 360.065 155.224 364.155 156.424C375.365 159.734 381.955 154.864 384.885 151.664C389.555 146.554 391.205 138.884 388.885 133.014C386.815 127.764 381.925 124.574 375.125 124.044C370.315 123.684 367.985 126.214 367.025 127.754C365.415 130.344 365.345 133.634 366.835 136.144C368.495 138.934 371.825 140.334 376.225 140.074C377.085 140.014 377.865 140.694 377.915 141.574C377.965 142.454 377.295 143.214 376.415 143.264C368.805 143.704 365.425 140.014 364.085 137.774C361.985 134.244 362.075 129.654 364.305 126.054C366.595 122.374 370.635 120.464 375.375 120.844C383.465 121.474 389.325 125.374 391.865 131.824Z" fill="#F5F1EA"/>
<path fill-rule="evenodd" clip-rule="evenodd" d="M569.928 218.883C574.168 221.836 578.553 224.89 585.345 224.89V224.88H585.595C590.935 224.82 593.585 222.3 595.465 219.85C596.455 218.55 598.315 217.81 600.175 217.96C609.405 218.71 614.385 212.87 615.105 207.15C615.735 202.13 613.075 196.48 606.775 195.4C605.075 195.11 603.645 194.23 603.055 193.11C600.845 188.95 596.295 186.37 590.545 186.04C583.765 185.65 577.095 188.51 573.925 193.15C571.735 196.36 571.065 200.26 572.055 204.11C572.075 204.19 572.095 204.26 572.115 204.33C568.455 204.18 565.595 206.34 564.475 208.89C563.155 211.9 564.205 215.07 567.145 216.98C568.032 217.556 568.893 218.158 569.743 218.754L569.895 218.86L569.928 218.883ZM567.405 210.18C568.045 208.73 569.685 207.53 571.825 207.53L571.845 207.55C572.335 207.55 572.855 207.61 573.395 207.75L573.595 207.81C574.865 209.98 576.685 211.75 578.825 212.83C584.695 215.81 590.155 214.06 593.045 211.66C595.605 209.52 596.725 206.58 595.965 203.98C595.425 202.13 593.425 198.88 586.115 197.98C585.245 197.88 584.445 198.5 584.335 199.37C584.225 200.24 584.845 201.04 585.725 201.15C589.735 201.64 592.345 203 592.895 204.87C593.295 206.22 592.565 207.88 590.995 209.18C588.855 210.96 584.755 212.23 580.265 209.96C577.815 208.72 575.915 206.24 575.165 203.33C574.405 200.38 574.905 197.41 576.575 194.97C579.085 191.28 584.765 188.95 590.365 189.25C594.965 189.51 598.565 191.47 600.225 194.62C601.285 196.63 603.535 198.11 606.235 198.57C610.755 199.34 612.355 203.36 611.925 206.76C611.375 211.17 607.615 215.35 600.425 214.78C597.455 214.54 594.585 215.74 592.915 217.91C591.535 219.72 589.705 221.64 585.555 221.69H585.345C579.549 221.69 575.764 219.053 571.755 216.261L571.571 216.132C570.691 215.517 569.801 214.895 568.885 214.3C566.575 212.8 567.085 210.92 567.405 210.18Z" fill="#F5F1EA"/>
<path fill-rule="evenodd" clip-rule="evenodd" d="M835.115 192.4H834.835C828.695 192.33 825.655 189.44 823.485 186.61C822.265 185.02 819.995 184.1 817.725 184.29C807.095 185.15 801.355 178.44 800.535 171.87C799.815 166.12 802.855 159.65 810.065 158.41C812.145 158.05 813.885 156.97 814.625 155.58C817.155 150.78 822.415 147.81 829.045 147.44C836.895 147 844.615 150.29 848.265 155.65C850.795 159.35 851.555 163.83 850.415 168.27C850.374 168.441 850.327 168.604 850.279 168.772L850.278 168.776L850.245 168.89C854.585 168.58 858.005 171.06 859.315 174.05C860.805 177.44 859.615 181.03 856.295 183.19C855.195 183.9 854.105 184.66 853.055 185.4C848.115 188.85 843.015 192.41 835.115 192.41V192.4ZM818.315 181.07C821.385 181.07 824.285 182.41 826.025 184.67C827.685 186.84 829.875 189.15 834.865 189.21C841.865 189.28 846.425 186.12 851.225 182.78C852.295 182.03 853.405 181.26 854.555 180.51C856.555 179.21 857.235 177.28 856.385 175.34C855.425 173.15 852.605 171.4 849.075 172.32L848.825 172.39L848.807 172.396L848.783 172.403C848.764 172.409 848.742 172.416 848.725 172.42C847.255 174.95 845.135 177.03 842.645 178.29C835.885 181.72 829.605 179.71 826.285 176.95C823.365 174.52 822.085 171.19 822.945 168.25C823.565 166.14 825.855 162.46 834.255 161.42C835.135 161.32 835.935 161.93 836.035 162.81C836.145 163.69 835.525 164.49 834.645 164.59C829.835 165.18 826.685 166.85 826.015 169.15C825.515 170.85 826.405 172.89 828.325 174.49C830.905 176.63 835.815 178.16 841.195 175.44C844.125 173.95 846.415 170.98 847.305 167.49C848.215 163.96 847.605 160.4 845.605 157.47C842.555 153.01 835.965 150.26 829.205 150.65C823.715 150.96 819.425 153.31 817.435 157.09C816.225 159.37 813.675 161.05 810.585 161.58C805.115 162.52 803.175 167.37 803.685 171.48C804.345 176.77 808.855 181.79 817.445 181.11C817.725 181.09 818.005 181.08 818.295 181.08L818.315 181.07Z" fill="#F5F1EA"/>
<path fill-rule="evenodd" clip-rule="evenodd" d="M33.2246 203.41C38.4646 207.07 43.8846 210.85 52.2446 210.85L52.2346 210.83H52.5346C59.0146 210.76 62.2346 207.7 64.5246 204.72C65.8446 203 68.2846 202.01 70.7346 202.21C81.9846 203.12 88.0446 196.04 88.9146 189.09C89.6746 183.02 86.4646 176.19 78.8646 174.89C76.6246 174.51 74.7346 173.33 73.9446 171.83C71.2746 166.77 65.7146 163.63 58.6946 163.23C50.3946 162.77 42.2046 166.25 38.3346 171.92C35.6646 175.84 34.8646 180.57 36.0646 185.26C36.1246 185.52 36.2046 185.79 36.2846 186.05C31.6446 185.67 27.9946 188.29 26.5946 191.47C25.0346 195.03 26.2846 198.79 29.7746 201.06C30.902 201.792 32.0201 202.571 33.1021 203.325L33.2246 203.41ZM29.5346 192.76C30.3746 190.83 32.5546 189.22 35.3946 189.22L35.4046 189.24C36.0546 189.24 36.7346 189.33 37.4446 189.51L37.4928 189.522C37.5598 189.538 37.6325 189.556 37.7046 189.58C37.7155 189.582 37.7258 189.585 37.7359 189.588L37.7558 189.593C37.7848 189.602 37.8127 189.61 37.8446 189.61C39.3946 192.3 41.6446 194.51 44.2846 195.85C51.4346 199.48 58.0646 197.36 61.5746 194.44C64.6546 191.88 66.0046 188.38 65.0946 185.29C64.4446 183.07 62.0246 179.19 53.1446 178.09C52.2746 177.99 51.4746 178.61 51.3646 179.48C51.2546 180.35 51.8746 181.15 52.7546 181.26C57.9146 181.9 61.2946 183.69 62.0246 186.18C62.5646 188.02 61.6146 190.24 59.5346 191.97C56.7646 194.27 51.5046 195.91 45.7346 192.99C42.5846 191.4 40.1346 188.22 39.1746 184.48C38.2046 180.69 38.8546 176.88 40.9946 173.74C44.2546 168.96 51.2846 166.03 58.5246 166.44C64.4046 166.77 68.9946 169.29 71.1346 173.34C72.4046 175.74 75.0946 177.5 78.3446 178.06C84.2346 179.07 86.3146 184.29 85.7646 188.71C85.0546 194.38 80.2246 199.77 71.0146 199.04C67.4446 198.74 63.9946 200.19 62.0046 202.79C60.2246 205.11 57.8746 207.59 52.5246 207.65H52.2546C44.8946 207.65 40.1146 204.32 35.0646 200.79L34.7689 200.584C33.714 199.85 32.6402 199.102 31.5246 198.38C29.3546 196.97 28.6046 194.87 29.5346 192.76Z" fill="#F5F1EA"/>
<path fill-rule="evenodd" clip-rule="evenodd" d="M276.748 203.294C283.945 202.216 289.957 198.86 294.215 193.42C300.385 185.55 302.205 173.96 298.645 165.22C296.925 161 294.155 158.07 290.685 156.72C294.375 152.01 295.525 144.72 290.035 137.65C285.835 132.25 278.175 128.7 270.335 132.32C270.665 125 267.515 118.26 261.275 113.08C250.915 104.47 233.605 101.56 221.015 106.33C212.895 109.41 207.445 115.36 205.455 123.23C192.625 114.96 180.075 118.87 172.375 125.59C162.675 134.06 156.775 149.71 163.515 163.93C152.345 167.88 147.785 181.77 150.045 193.16C150.857 197.263 152.733 201.499 155.823 204.803C148.79 207.98 142.924 216.529 144.565 226.82C146.185 236.99 154.365 240.78 162.335 241.03C159.205 248.31 162.935 254.39 167.485 257.6C170.495 259.72 174.275 260.94 178.065 260.94L178.055 260.93C181.904 260.93 185.768 259.674 188.853 256.824C189.354 257.836 189.921 258.826 190.555 259.79C193.035 263.55 201.075 273.21 218.175 273.21C223.695 273.21 230.155 272.21 237.685 269.67C245.955 278.28 253.535 281.39 260.515 281.39L260.525 281.38C270.755 281.38 279.665 274.69 287.455 268.84C291.705 265.64 295.725 262.63 299.475 261.03C308.86 257.032 316.867 260.677 325.343 264.535L325.361 264.543C338.591 270.561 352.268 276.783 369.038 249.737C369.371 249.416 369.544 248.971 369.528 248.524C369.54 247.973 369.267 247.428 368.765 247.12C368.074 246.697 367.18 246.867 366.683 247.482C350.615 257.584 340.52 250.854 329.835 243.73C318.015 235.84 305.795 227.7 286.165 243.64C279.485 249.07 268.255 252.59 258.235 248.23C258.195 248.21 258.155 248.19 258.115 248.18C254.67 247.004 251.198 243.329 249.258 238.291C252.654 240.947 257.121 242.692 261.975 243.16C262.865 243.25 263.745 243.29 264.615 243.29L264.635 243.28C270.635 243.28 276.115 241.26 279.935 237.56C285.555 232.12 287.925 222.03 285.445 214.08C283.983 209.406 280.99 205.736 276.748 203.294ZM351.195 255.75C342.125 255.75 334.805 250.87 328.055 246.36C316.705 238.79 305.975 231.64 288.185 246.1C279.275 253.34 266.755 255.37 257.015 251.17C250.325 248.84 243.845 239.61 244.535 228.12C244.995 220.42 249.055 215.02 255.395 213.68C263.695 211.92 268.675 216.17 269.785 220.87C270.735 224.9 268.795 229.74 263.235 231.19C262.385 231.41 261.505 230.9 261.285 230.05C261.065 229.19 261.575 228.32 262.425 228.1C266.185 227.12 267.265 224.14 266.675 221.62C265.915 218.39 262.265 215.51 256.065 216.83C249.085 218.31 247.915 225.37 247.735 228.33C247.655 229.656 247.686 230.95 247.813 232.202C247.941 232.3 248.057 232.42 248.155 232.56C250.985 236.62 256.275 239.39 262.295 239.97C268.385 240.56 274.005 238.84 277.715 235.26C281.865 231.25 284.755 222.58 282.395 215.04C281.029 210.665 277.35 205.117 267.613 203.486C266.885 203.417 266.148 203.328 265.405 203.22C260.145 202.46 255.235 199.05 252.265 194.1C248.805 188.34 248.275 181.36 250.765 174.45C255.135 162.33 263.895 161.55 267.455 161.77C273.995 162.18 279.845 166.59 281.055 172.01C282.155 176.92 279.285 181.66 273.185 185.01C272.415 185.44 271.435 185.15 271.015 184.38C270.585 183.61 270.875 182.63 271.645 182.21C276.475 179.56 278.705 176.19 277.935 172.71C277.035 168.69 272.345 165.29 267.255 164.96C261.265 164.56 256.335 168.43 253.785 175.53C251.625 181.52 252.065 187.53 255.015 192.45C257.495 196.58 261.545 199.42 265.865 200.05C266.525 200.146 267.17 200.224 267.802 200.288C267.879 200.289 267.957 200.297 268.035 200.31C280.829 201.517 287.932 196.245 291.695 191.44C297.815 183.62 298.335 172.93 295.675 166.41C293.965 162.22 291.045 159.64 287.455 159.16C286.835 159.08 286.315 158.63 286.135 158.03C285.955 157.43 286.135 156.78 286.625 156.36C292.335 151.41 291.095 144.2 287.515 139.59C283.585 134.53 276.425 131.63 269.315 136.57C268.785 136.94 268.085 136.95 267.535 136.6C266.995 136.25 266.715 135.61 266.825 134.97C268.525 125.52 263.635 119.18 259.225 115.52C249.675 107.58 233.735 104.91 222.145 109.3C216.615 111.4 209.685 116.02 208.115 126.15C208.025 126.7 207.655 127.17 207.135 127.39C206.615 127.6 206.025 127.53 205.575 127.19C195.375 119.58 183.755 119.88 174.475 127.98C165.565 135.77 159.985 151.08 167.215 164.12C167.455 164.56 167.485 165.08 167.275 165.54C167.075 166 166.665 166.33 166.175 166.45C157.825 168.41 150.475 178.93 153.165 192.51C154.865 201.08 161.365 209.48 174.505 207.35C175.135 207.24 175.765 207.53 176.105 208.07C176.445 208.61 176.435 209.3 176.085 209.83C171.065 217.26 173.145 223.56 176.445 226.7C180.035 230.11 186.585 231.35 193.145 226.41C193.163 226.397 193.18 226.384 193.199 226.372C199.196 220.136 208.023 220.37 213.765 223.26C216.315 224.546 218.323 226.329 219.703 228.439C236.585 210.002 234.63 190.849 227.635 179.85C220.475 168.6 207.605 164.19 194.845 168.61C185.005 172.03 182.665 182.49 185.455 190.6C187.675 197.05 193.715 203.4 203.435 200.08C208.855 198.23 211.325 192.65 210.575 188.33C209.805 183.9 206.055 181.4 200.375 181.48C199.515 181.53 198.765 180.79 198.755 179.9C198.745 179.02 199.455 178.29 200.335 178.28H200.625C209.065 178.28 212.935 183.17 213.725 187.79C214.705 193.44 211.505 200.71 204.465 203.12C193.285 206.94 185.345 200.11 182.435 191.65C179.135 182.07 182.005 169.69 193.805 165.59C200.437 163.289 207.098 163.136 213.128 164.902C206.09 150.653 210.465 142.159 213.925 138.22C219.635 131.72 230.095 129.49 238.255 133.02C245.575 136.19 249.275 143.08 248.415 151.91C248.005 156.16 245.335 159.6 241.275 161.11C237.255 162.6 232.705 161.84 229.955 159.2C228.285 157.6 225.815 153.9 228.035 147.02C228.305 146.18 229.205 145.72 230.045 145.99C230.885 146.26 231.345 147.16 231.075 148C229.815 151.92 230.195 155 232.165 156.89C234.055 158.69 237.265 159.18 240.165 158.11C243.095 157.02 244.935 154.65 245.235 151.6C246.215 141.52 240.485 137.47 236.985 135.95C230.045 132.95 221.165 134.82 216.335 140.33C210.895 146.521 211.401 155.869 217.728 166.682C222.706 169.109 227.062 172.977 230.345 178.13C234.955 185.37 236.805 194.35 235.575 203.43C234.226 213.35 229.257 223.05 221.201 231.541C221.924 233.727 222.081 236.125 221.605 238.6C220.695 243.34 217.805 246.82 213.695 248.13C209.905 249.35 205.715 248.48 203.035 245.92C200.505 243.51 199.685 240.07 200.715 236.21C200.945 235.36 201.825 234.85 202.675 235.08C203.525 235.31 204.035 236.19 203.805 237.04C203.085 239.75 203.575 242.02 205.245 243.6C207.065 245.33 210.065 245.93 212.725 245.08C214.465 244.52 217.525 242.86 218.465 237.99C219.425 232.98 217.135 228.54 212.325 226.11C207.545 223.7 200.185 223.51 195.315 228.79C189.22 235.401 187.611 244.841 190.758 253.166C190.822 253.285 190.871 253.411 190.903 253.541C191.515 255.083 192.292 256.585 193.235 258.02C201.205 270.15 217.795 273.25 237.615 266.3C238.215 266.09 238.885 266.26 239.315 266.72C258.068 286.883 272.015 276.418 285.51 266.291L285.525 266.28L285.526 266.279C289.936 262.97 294.105 259.84 298.215 258.09C308.905 253.54 317.935 257.65 326.675 261.63C338.753 267.131 349.317 271.938 362.935 253.119C358.698 254.998 354.812 255.77 351.205 255.77L351.195 255.75ZM189.048 232.148C185.581 238.704 185.023 246.496 187.509 253.627C182.62 259.062 174.554 258.652 169.325 254.97C165.225 252.08 162.285 246.68 166.365 240.22C166.685 239.72 166.695 239.07 166.385 238.55C166.075 238.04 165.505 237.73 164.905 237.78C155.405 238.44 148.975 234.16 147.725 226.31C146.539 218.906 150.585 209.642 158.503 207.187C161.885 209.671 166.294 211.164 171.845 210.88C169.085 216.7 168.875 223.92 174.265 229.04C176.725 231.38 180.235 232.94 184.215 232.94L184.185 232.92C185.746 232.92 187.379 232.679 189.048 232.148Z" fill="#F5F1EA"/>
<path fill-rule="evenodd" clip-rule="evenodd" d="M822.255 336.42C821.865 336.42 821.475 336.41 821.075 336.39C810.082 335.797 801.954 328.19 799.209 320.16C798.174 321.429 797.008 322.685 795.695 323.92C788.445 330.74 779.265 334.39 769.985 334.39V334.35C767.015 334.35 764.025 333.97 761.095 333.21C750.348 330.403 743.149 324.349 739.658 315.19C737.111 317.273 734.04 318.895 730.475 319.8C715.522 323.908 708.302 322.072 701.934 320.452L701.925 320.45L701.922 320.449C694.923 318.669 688.873 317.131 672.885 325.13C664.395 329.38 656.735 331.06 649.915 331.06V331.08C633.525 331.08 622.005 321.35 615.665 314.05C612.295 310.17 609.875 306.43 608.435 303.97C605.455 298.89 605.705 298.53 606.205 297.81C606.475 297.42 606.905 297.17 607.375 297.13C607.845 297.08 608.315 297.25 608.645 297.59C610.595 299.53 615.625 301.68 618.675 302.25C633.258 303.939 639.309 297.516 645.157 291.308L645.165 291.3C649.595 286.59 654.175 281.73 662.115 281.24C673.233 280.551 681.293 283.379 690.62 286.651L690.675 286.67L691.595 286.99C697.975 288.57 703.295 287.51 706.575 283.98C709.165 281.2 710.085 277.1 708.915 273.55C707.735 269.96 704.775 267.55 700.575 266.76C700.541 266.754 700.507 266.746 700.474 266.738C700.427 266.726 700.382 266.713 700.338 266.697C699.01 266.958 697.614 267.09 696.165 267.09L696.175 267.12C694.425 267.12 692.595 266.93 690.715 266.54C685.015 265.36 679.335 262.48 675.515 258.81C665.445 249.15 664.495 236.79 672.905 224.88L672.995 224.76C680.605 215.85 691.455 210.79 703.515 210.51C715.107 210.229 726.235 214.518 734.434 222.312C740.266 210.837 753.638 200.07 769.715 199.16C785.195 198.3 800.895 204.02 811.745 214.49C819.935 222.4 824.335 231.92 824.135 241.31C824.132 241.438 824.114 241.562 824.083 241.681C827.54 241.239 831.22 241.477 834.935 242.44C844.093 244.813 851.62 250.998 854.822 258.572C862.614 256.525 869.766 258.292 875.045 263.58C880.715 269.26 883.035 278.11 880.835 285.6C879.045 291.67 874.625 296.01 868.275 297.98C873.075 307.53 869.225 317.24 862.915 322.9C856.775 328.41 846.945 331.11 838.055 325.45C835.515 332.42 829.775 336.43 822.255 336.43V336.42ZM761.905 330.11C751.735 327.449 745.108 321.627 742.198 312.779C746.914 307.596 749.101 300.657 748.455 294.57C748.015 290.44 746.305 286.87 743.515 284.27C740.405 281.37 736.185 279.8 730.965 279.61C725.775 279.43 721.085 282 718.405 286.5C715.925 290.66 715.715 295.7 717.855 299.32C720.025 303 724.315 304.93 729.895 304.73C730.785 304.7 731.475 303.96 731.445 303.08C731.415 302.2 730.665 301.48 729.795 301.54C725.365 301.67 722.185 300.36 720.615 297.7C719.065 295.07 719.275 291.31 721.165 288.14C723.265 284.6 726.785 282.66 730.855 282.81C742.765 283.24 744.915 291.42 745.285 294.91C746.175 303.26 740.465 313.97 729.665 316.71C715.497 320.596 708.717 318.873 702.741 317.354L702.725 317.35L702.716 317.348C695.1 315.409 688.518 313.733 671.465 322.27C658.895 328.56 647.065 329.6 636.285 325.36C623.825 320.46 615.705 309.68 611.795 303.28C614.095 304.33 616.495 305.09 618.155 305.39C618.185 305.4 618.225 305.4 618.255 305.4C634.486 307.289 641.388 299.958 647.485 293.48L647.495 293.47L647.509 293.455C651.873 288.821 655.642 284.819 662.315 284.41C672.805 283.77 680.225 286.37 689.615 289.67L690.605 290.02C690.63 290.025 690.652 290.032 690.674 290.04L690.676 290.04C690.685 290.043 690.694 290.046 690.703 290.049C690.712 290.052 690.722 290.055 690.732 290.057L690.745 290.06C700.985 292.64 706.525 288.71 708.915 286.15C712.335 282.47 713.505 277.26 711.955 272.54C710.845 269.175 708.494 266.541 705.276 264.959C706.079 264.527 706.837 264.03 707.545 263.47C712.545 259.5 718.635 253.01 713.815 242.42C712.005 238.46 707.825 235.71 702.895 235.25C697.935 234.78 693.375 236.79 690.705 240.59C690.195 241.32 690.375 242.31 691.095 242.82C691.815 243.33 692.815 243.15 693.325 242.43C695.335 239.58 698.795 238.08 702.605 238.44C706.395 238.8 709.575 240.83 710.905 243.76C713.995 250.53 712.445 255.52 705.565 260.97C697.705 267.2 684.055 262.56 677.725 256.49C668.805 247.94 668.005 237.39 675.465 226.78C682.475 218.61 692.465 213.96 703.585 213.7C714.707 213.438 725.387 217.699 733.045 225.425C732.713 226.288 732.425 227.151 732.185 228.01C730.595 233.68 730.965 239.89 733.235 245.98L733.305 246.16C736.885 255.68 744.555 262.95 753.835 265.59C756.925 266.47 759.855 266.9 762.575 266.9V266.89C769.485 266.89 775.005 264.12 778.065 258.89C781.665 252.73 780.505 244.29 775.245 238.37C769.825 232.27 761.795 230.72 753.755 234.21C752.945 234.57 752.575 235.51 752.925 236.32C753.275 237.13 754.215 237.5 755.025 237.15C764.695 232.95 770.705 238.09 772.845 240.5C777.125 245.32 778.155 252.38 775.295 257.28C770.145 266.11 758.235 263.52 754.715 262.51C746.405 260.15 739.525 253.61 736.305 245.04L736.245 244.87C734.205 239.42 733.875 233.89 735.275 228.88C738.635 216.87 752.825 203.32 769.905 202.36C784.505 201.53 799.315 206.94 809.525 216.8C817.065 224.08 821.115 232.77 820.935 241.25C820.931 241.608 821.044 241.941 821.239 242.211C817.18 243.214 813.534 245.217 810.645 248.14C805.935 252.91 804.825 259.01 807.595 264.87C811.025 272.11 819.395 277.27 826.655 276.6C829.935 276.29 835.795 274.47 838.125 265.62C838.345 264.76 837.835 263.89 836.985 263.66C836.125 263.44 835.255 263.95 835.025 264.8C833.645 270.04 830.645 273.02 826.355 273.41C820.445 273.94 813.325 269.5 810.485 263.49C808.285 258.85 809.145 254.19 812.915 250.38C818.095 245.14 825.825 243.37 834.125 245.52C843.235 247.88 850.505 254.35 852.635 261.97C854.475 269.48 854.015 280.69 848.865 288.81C845.775 293.68 841.495 296.7 836.135 297.79C826.265 299.92 817.635 294.23 812.125 289.09C808.935 286.11 807.125 284.82 805.445 285.59C803.707 286.389 803.785 288.516 803.914 292.049L803.915 292.06L803.916 292.084C804.11 297.464 804.438 306.564 798.72 315.357C798.635 315.456 798.563 315.566 798.504 315.684C797.176 317.673 795.533 319.644 793.505 321.55C784.735 329.79 772.925 332.99 761.905 330.11ZM855.837 261.611C862.399 259.952 868.392 261.438 872.775 265.84C877.635 270.72 879.645 278.3 877.755 284.7C876.125 290.24 871.775 294.04 865.515 295.4C865.005 295.51 864.575 295.86 864.375 296.34C864.175 296.82 864.215 297.37 864.495 297.81C869.855 306.37 866.485 315.38 860.765 320.52C855.595 325.17 846.575 328.24 838.155 321.61C837.725 321.27 837.165 321.18 836.645 321.35C836.135 321.53 835.745 321.95 835.615 322.48C833.815 329.69 828.585 333.6 821.245 333.2C813.008 332.75 803.325 326.395 801.626 316.822C807.673 307.348 807.323 297.704 807.115 291.989L807.115 291.98C807.075 290.98 807.035 289.81 807.065 289.02C807.605 289.39 808.495 290.11 809.945 291.46C818.635 299.58 827.925 302.86 836.795 300.95C842.935 299.7 848.045 296.1 851.565 290.55C856.464 282.822 858.127 271.529 855.837 261.611Z" fill="#F5F1EA"/>
<path d="M486.194 350H494.783C486.154 347.114 479.122 342.911 475.825 338.22C470.185 330.2 468.495 321.6 470.955 313.361C473.555 304.64 480.535 297.46 490.095 293.651C504.915 287.76 518.104 294.05 522.995 302.96C527.315 310.84 524.795 319.22 516.245 325.39C515.535 325.901 515.365 326.901 515.885 327.62C516.395 328.33 517.395 328.5 518.115 327.98C529.875 319.5 529.795 308.7 525.795 301.421C520.245 291.3 505.435 284.1 488.915 290.68C478.435 294.85 470.775 302.78 467.895 312.45C465.255 321.327 467.002 330.901 472.809 339.472C471.91 343.357 469.242 347.413 464.262 350H469.878C472.305 347.932 474.141 345.391 475.233 342.488C477.926 345.283 481.701 347.835 486.194 350Z" fill="#F5F1EA"/>
<path d="M398.698 350C394.154 345.004 391.315 338.342 391.445 331.941C391.49 329.705 391.873 327.604 392.577 325.659C391.05 325.925 389.549 326.05 388.075 326.05C376.955 326.05 367.375 319 358.765 312.66C344.825 302.401 333.815 294.3 319.485 311.941C318.925 312.631 317.915 312.731 317.235 312.171C316.545 311.611 316.445 310.611 317.005 309.921C344.875 275.59 358.445 278.68 375.615 282.6L375.733 282.627C380.352 283.678 385.122 284.763 390.525 285.149C390.415 275.326 396.532 264.519 405.665 259.22C414.053 254.347 423.621 254.696 432.707 260C426.509 245.743 428.284 231.297 437.765 219.87C449.265 206.01 469.045 200 485.854 205.25C496.285 208.51 514.104 218.98 517.615 252.53C539.325 248.361 557.485 255.43 567.625 272.09C579.785 292.05 577.325 321.14 561.925 339.74C558.267 344.159 554.045 347.495 549.61 350H542.165C548.4 347.55 554.511 343.691 559.475 337.7C574.055 320.1 576.385 292.611 564.915 273.75C559.235 264.43 545.405 249.73 516.555 256.02C516.417 256.051 516.278 256.063 516.141 256.057C516.065 256.053 515.991 256.045 515.917 256.03C515.803 256.009 515.691 255.974 515.584 255.927C515.472 255.879 515.365 255.816 515.265 255.74C514.895 255.47 514.655 255.05 514.615 254.59C511.725 221.49 494.775 211.381 484.915 208.3C469.555 203.5 450.775 209.22 440.245 221.91C430.825 233.26 429.745 247.91 437.285 262.1C437.672 262.829 438.114 263.532 438.605 264.207L438.855 264.421C439.087 264.622 439.248 264.874 439.336 265.147C443.835 270.572 451.663 273.965 460.005 273.881C470.555 273.75 479.275 268.32 483.945 258.99C488.525 249.84 484.685 241.401 478.755 238.1C471.985 234.34 464.205 237.43 458.955 245.98C458.495 246.73 457.505 246.97 456.755 246.51C456.005 246.05 455.765 245.06 456.225 244.31C461.325 236 470.755 230 480.305 235.3C487.535 239.32 492.275 249.49 486.805 260.421C481.335 271.35 471.825 276.94 460.035 277.08H459.615C449.948 277.08 441.152 272.988 436.213 266.382C423.202 255.527 412.521 258.944 407.275 262C398.025 267.37 392.215 278.99 394.055 288.441C395.445 295.57 401.045 300.191 409.835 301.441C418.435 302.66 425.175 300.56 428.315 295.671C430.375 292.461 430.435 288.41 428.475 285.35C426.095 281.651 421.335 280.01 415.415 280.861C414.535 280.981 413.725 280.381 413.605 279.5C413.485 278.62 414.085 277.81 414.965 277.691C422.175 276.66 428.085 278.82 431.165 283.62C433.805 287.731 433.745 293.131 431.005 297.401C427.845 302.33 421.945 304.981 414.445 304.981V304.97C413.603 304.97 412.746 304.938 411.869 304.872C411.37 304.834 410.864 304.785 410.351 304.725C410.187 304.706 410.021 304.686 409.854 304.664C409.698 304.644 409.542 304.622 409.385 304.6C395.565 302.631 391.885 294.01 390.915 289.04C390.872 288.82 390.832 288.599 390.796 288.377C384.9 288 379.823 286.847 374.905 285.72L374.898 285.719C361.251 282.61 350.031 280.053 330.695 299.37C341.354 295.871 351.123 303.059 360.663 310.079L360.665 310.08C370.765 317.51 381.205 325.191 393.595 322.18C393.83 322.122 394.066 322.121 394.29 322.167C396.633 318.47 400.379 315.546 405.365 313.611C406.185 313.291 407.115 313.7 407.435 314.521C407.755 315.34 407.345 316.271 406.525 316.59C399.005 319.51 394.785 324.981 394.645 332.001C394.515 338.596 397.987 345.51 403.264 350H398.698Z" fill="#F5F1EA"/>
<path d="M428.41 350H439.01C433.577 347.527 429.009 343.306 427.145 337.08C425.155 328.28 430.305 321.35 436.295 318.39C441.125 316 448.025 315.54 452.905 321.401C457.195 326.55 456.295 332.8 453.185 336.3C450.005 339.881 445.325 340.21 440.655 337.18C439.915 336.7 438.925 336.91 438.445 337.651C437.965 338.39 438.175 339.381 438.915 339.861C444.845 343.71 451.385 343.151 455.585 338.421C459.605 333.89 460.825 325.89 455.375 319.34C450.365 313.32 442.325 311.82 434.885 315.5C427.765 319.02 421.645 327.29 424.045 337.82L424.054 337.846L424.055 337.849C424.065 337.873 424.075 337.899 424.075 337.921C425.316 342.1 427.59 345.492 430.483 348.157C430.41 348.208 430.34 348.266 430.275 348.33C429.662 348.927 429.04 349.483 428.41 350Z" fill="#F5F1EA"/>
<path d="M88.1448 298.28C85.3347 298.28 82.6047 297.78 80.2449 296.769C74.4849 294.309 69.9248 289.16 67.4048 282.28C65.2329 276.342 64.8511 269.832 66.3071 264.198C57.7681 259.666 44.8733 261.635 36.7048 274.43C31.1948 283.06 29.6247 296.34 43.3447 305.34C43.9448 305.74 44.2148 306.49 43.9849 307.17C43.7649 307.86 43.1147 308.31 42.3848 308.27C32.4248 307.77 25.9148 317.83 24.8347 327.53C24.0034 334.986 26.0624 343.762 33.0371 350H28.4117C22.5368 343.277 20.8163 334.651 21.6448 327.2C22.8948 315.96 29.6748 307.37 38.1648 305.47C27.0149 295.89 27.7847 282.46 34.0049 272.72C40.9575 261.832 55.0344 254.876 67.323 261.12C70.9216 252.246 79.6059 245.703 89.5249 244.59C99.2549 243.5 107.925 247.8 113.535 256.42C122.685 251.34 131.475 254.48 136.805 259.32C142.817 264.772 145.392 272.569 143.783 279.435C147.696 278.439 151.371 280.316 153.705 283.209C156.245 286.36 157.345 290.84 155.895 294.51C161.845 293.99 167.035 295.93 170.515 300.1C174.283 304.605 175.497 311.022 173.975 317.312C182.818 312.608 194.818 310.525 204.885 315.58C208.294 317.289 211.19 319.672 213.994 321.979L214.045 322.02C217.465 324.84 220.705 327.5 224.795 329.05C241.595 335.44 262.805 326.11 263.015 326.01C263.675 325.71 264.445 325.9 264.905 326.46C265.365 327.02 265.385 327.81 264.975 328.4C264.434 329.157 252.836 345.312 241.163 350H226.783C224.476 349.261 222.225 348.299 220.005 347.35L219.942 347.324L219.94 347.323C214.084 344.833 208.562 342.485 202.295 343.92C197.968 344.908 194.411 347.335 190.743 350H185.28C186.091 349.428 186.902 348.836 187.724 348.236L187.815 348.17C191.935 345.15 196.205 342.03 201.575 340.8C208.875 339.13 215.165 341.81 221.255 344.41C226.535 346.66 231.535 348.79 236.835 347.93C244.855 346.63 254.035 336.83 258.905 330.96C251.165 333.49 236.485 336.92 223.655 332.04C219.102 330.31 215.528 327.374 212.077 324.54L212.072 324.537L212.015 324.49C209.215 322.18 206.565 320 203.455 318.44C193.048 313.222 180.212 316.569 172.044 322.226C171.897 322.352 171.73 322.448 171.551 322.513C170.879 322.774 170.098 322.552 169.665 321.94C169.294 321.417 169.288 320.746 169.588 320.223C172.488 313.823 171.881 306.742 168.045 302.149C164.585 298.01 159.155 296.64 152.735 298.3C152.015 298.49 151.255 298.149 150.915 297.479C150.575 296.809 150.735 295.999 151.315 295.519C154.375 292.959 153.655 288.269 151.195 285.22C149.155 282.68 145.635 281.01 141.895 283.91C141.4 284.291 140.756 284.338 140.23 284.086L140.21 284.076L140.175 284.059C139.385 283.65 139.085 282.69 139.485 281.9C142.765 275.559 140.775 267.24 134.645 261.69C128.525 256.14 120.755 255.49 113.865 259.95C113.796 259.995 113.724 260.034 113.649 260.067C113.6 260.089 113.55 260.108 113.5 260.124C113.294 260.192 113.077 260.216 112.862 260.198C112.782 260.191 112.703 260.178 112.625 260.16C112.195 260.059 111.835 259.789 111.615 259.41C106.715 251.01 98.7947 246.76 89.8747 247.77C80.5933 248.811 72.5508 255.201 69.7742 263.724C69.7507 263.855 69.7102 263.985 69.6521 264.111C66.5029 274.444 70.8633 289.285 81.4949 293.829C88.5847 296.86 100.115 294.35 103.815 286.69C106.815 280.47 103.375 274.579 98.9148 271.75C95.2148 269.4 89.4448 268.42 85.3547 273.44C84.7947 274.12 83.7847 274.23 83.1047 273.67C82.4248 273.11 82.3147 272.1 82.8747 271.42C87.9448 265.21 95.4448 265.76 100.635 269.059C106.425 272.75 110.375 280.47 106.695 288.09C103.435 294.85 95.5049 298.29 88.1348 298.29L88.1448 298.28Z" fill="#F5F1EA"/>
<path d="M85.3384 350H80.2658C86.3454 345.565 90.7206 339.73 92.2649 333.72C94.9348 323.32 88.5447 314.65 74.7549 309.93C68.5747 307.81 62.4248 308.96 57.8747 313.07C54.1147 316.47 52.3047 321.34 53.2749 325.47C54.2349 329.58 57.6648 332.58 63.2048 334.15C64.0547 334.39 64.5447 335.27 64.3047 336.13C64.0647 336.98 63.1848 337.48 62.3247 337.23C55.6948 335.35 51.3747 331.44 50.1548 326.2C48.9048 320.87 51.0447 314.93 55.7248 310.7C61.0847 305.86 68.5847 304.44 75.7847 306.91C91.1247 312.16 98.4448 322.48 95.3547 334.52C94.3035 338.624 92.1223 342.62 89.0408 346.231C89.2442 347.479 89.6905 348.757 90.4114 350H86.8418C86.6955 349.659 86.5641 349.318 86.4473 348.976C86.0864 349.322 85.7166 349.664 85.3384 350Z" fill="#F5F1EA"/>
<path d="M142.448 350H135.288C135.819 349.164 136.231 348.269 136.506 347.316C135.496 345.562 134.644 343.642 133.955 341.56C130.525 331.24 131.465 321.41 136.395 315.92C139.295 312.69 145.015 309.33 155.785 311.65C161.115 312.8 164.535 316.73 164.955 322.17C165.415 328.19 162.045 333.98 156.935 335.93C153.195 337.36 147.255 337.38 143.775 334.94C141.805 333.56 140.785 331.55 140.825 329.11C140.835 328.23 141.535 327.51 142.455 327.54C143.335 327.55 144.045 328.28 144.025 329.17C144.005 330.53 144.525 331.56 145.605 332.32C148.065 334.04 152.945 334.03 155.785 332.94C159.535 331.51 162.105 326.98 161.755 322.41C161.615 320.51 160.675 315.97 155.105 314.77C147.655 313.16 142.165 314.27 138.765 318.05C134.595 322.69 133.915 331.31 136.975 340.55C138.224 344.307 140.055 347.467 142.448 350Z" fill="#F5F1EA"/>
</g>
<defs>
<clipPath id="clip0_1827_861">
<rect width="903" height="350" fill="white"/>
</clipPath>
</defs>
</svg>
