<svg width="47" height="50" viewBox="0 0 47 50" fill="none" xmlns="http://www.w3.org/2000/svg">
<path d="M11.8614 23.5477L14.5372 24.9797C14.2813 25.2109 13.9743 25.3906 13.708 25.5466C13.4533 25.6956 13.2359 25.8229 13.1355 25.9528C13.1355 26.0226 13.2054 26.0785 13.2752 26.0785C13.9596 26.0366 14.6579 25.841 15.3004 25.5477V25.5617C15.3289 25.5483 15.3553 25.5337 15.3794 25.5182C15.4066 25.5052 15.4324 25.4896 15.4566 25.4717L16.0685 25.7991C16.3199 25.9388 16.5154 25.5477 16.264 25.422L15.6626 25.0275C15.6291 23.8525 15.2686 22.7735 14.8394 21.7767C14.8255 21.7209 14.7556 21.6929 14.6998 21.6929C14.6299 21.7069 14.602 21.7767 14.602 21.8466C14.7633 22.7219 14.858 23.6068 14.7766 24.4463L10.7235 21.7876C10.724 21.2114 9.95115 18.1996 9.61596 19.165C9.77573 19.8573 9.84614 20.5253 9.80861 21.1875L7.12992 19.4304H7.11597C6.33384 18.8019 5.45395 20.0868 6.33384 20.5896L10.8253 22.9932C10.5732 23.1558 10.3442 23.3011 10.0489 23.4108C9.89528 23.4667 9.92321 23.7181 10.0908 23.7181C10.4 23.7515 10.7442 23.7049 11.0605 23.6621C11.2729 23.6334 11.4728 23.6063 11.6411 23.6063H11.6271C11.7192 23.6002 11.797 23.5794 11.8614 23.5477Z" fill="#3A4B3C"/>
<path fill-rule="evenodd" clip-rule="evenodd" d="M15.1607 9.77948C15.5098 13.5923 16.278 16.5672 20.6774 17.4611L20.6914 17.475C20.8391 17.5131 20.9714 17.5084 21.0855 17.4731C22.5469 22.1965 24.5457 29.4797 25.3274 36.0857C24.1804 33.4608 22.6758 30.9834 20.7931 28.8358C20.8944 28.7899 20.9708 28.6952 20.9708 28.5505C21.3618 23.9555 17.7305 19.975 13.5964 18.4667C9.50426 16.8605 4.93721 16.8465 0.63553 17.3633C0.0489368 17.3912 -0.230405 18.2013 0.23049 18.5784L4.35063 22.2516C8.31712 26.3019 13.7501 28.5644 19.2668 29.584C19.5789 29.6533 19.8813 29.4932 20.0239 29.2223C22.5507 32.0435 24.3867 35.4689 25.595 39.0677C25.8434 43.3489 25.41 47.0916 23.7501 49.2907C23.3451 49.6817 23.9736 50.2683 24.3367 49.8633C26.9297 46.6941 26.9512 40.3107 26.0004 33.6644C26.1307 32.7476 26.1904 31.8335 26.2495 30.9262C26.3289 29.7087 26.4075 28.5036 26.6551 27.3213C26.827 26.1779 27.1778 25.1005 27.679 24.1145C27.7166 24.0858 27.7512 24.0533 27.7819 24.0171C27.8429 24.0604 27.9194 24.0811 27.9959 24.0672C29.7417 23.7739 31.4177 23.4108 33.1216 23.0197C36.5713 22.4471 40.0211 20.8968 42.4792 18.327C43.7445 17.2313 44.7661 15.8797 45.7489 14.5795L45.9568 14.3046C46.1104 14.0951 46.1524 13.8158 46.0267 13.5784C45.8311 13.2013 45.3702 13.0895 45.0211 13.299C43.092 14.3263 40.8899 14.1516 38.6498 13.9738C36.9001 13.835 35.1271 13.6943 33.4428 14.1231C29.197 15.0169 25.6635 19.2488 26.5574 23.7041L26.5434 23.718C26.5755 23.8895 26.6524 24.0183 26.7543 24.1082C25.9591 25.7503 25.4756 27.5826 25.2853 29.4583C24.1584 23.6674 22.546 18.1504 21.5155 14.8772C21.2361 14.123 20.0909 14.5839 20.3981 15.3101C20.4726 15.5381 20.5501 15.7774 20.6302 16.0274C17.2588 15.2253 16.9081 12.8202 16.5573 9.54205C16.4023 8.88458 16.2195 8.2395 16.0163 7.60294L17.5909 8.39684C17.6248 8.41285 17.6579 8.42554 17.69 8.43518C17.8877 8.77899 18.0792 9.12755 18.2653 9.47996C18.2838 9.55514 18.3217 9.62493 18.3726 9.68456C18.6357 10.1904 18.8881 10.7037 19.1321 11.2219C19.1165 11.2245 19.1009 11.2279 19.0853 11.232C18.4847 11.3856 17.926 11.3856 17.2976 11.1621V11.1761C17.1439 11.1063 17.0182 11.3437 17.1579 11.4415C17.5282 11.7893 19.0256 12.4979 19.5346 12.0964C19.6366 12.3228 19.7373 12.5498 19.8368 12.7773C19.824 12.9283 19.8946 13.0668 20.0046 13.1635C20.1184 13.4272 20.2309 13.6912 20.3423 13.9554C20.3841 14.0532 20.4819 14.0951 20.5797 14.0671C20.6774 14.0392 20.7193 13.9275 20.6914 13.8297C20.6284 13.6463 20.5649 13.4628 20.5008 13.2792C20.6058 13.244 20.7033 13.1662 20.7752 13.0337C21.1523 12.3215 21.306 11.4974 21.306 10.7572V10.7712C21.3199 10.5617 20.9847 10.4918 20.9289 10.7153C20.7586 11.3112 20.5036 11.833 20.1455 12.2806C19.8317 11.4168 19.5 10.5551 19.1379 9.70415C19.1537 9.6845 19.1687 9.66306 19.183 9.63975C19.6439 8.85763 19.7976 8.01964 19.9233 7.23751C19.9652 7.00008 19.616 6.90232 19.5322 7.12578C19.2902 7.68669 19.031 8.2476 18.693 8.69939C18.5712 8.43553 18.446 8.17309 18.3169 7.91233C18.3122 7.77269 18.2547 7.63704 18.1334 7.54799C17.9249 7.1411 17.7065 6.73869 17.4767 6.34181C17.5149 6.29303 17.5488 6.23355 17.5769 6.16223C17.7305 5.68737 17.7305 5.19854 17.7305 4.79351H17.7445C17.7445 4.65385 17.5629 4.59798 17.4931 4.70971C17.3066 4.99495 17.1287 5.25433 16.9324 5.44725C16.5187 4.80035 16.07 4.17107 15.5797 3.56432L15.5936 3.55035C15.256 3.12597 14.7053 3.38764 14.5762 3.77419C14.4086 3.37012 14.2385 2.96629 14.0681 2.56162L13.9534 2.28934C17.784 4.4498 21.6313 6.92127 23.0797 11.218C23.5406 12.7264 23.5266 14.5979 22.2836 15.5057C22.102 15.6314 22.0601 15.8828 22.1858 16.0644C22.3115 16.246 22.5629 16.2879 22.7445 16.1622C25.9149 13.5225 23.5126 8.75992 21.3339 6.28785C19.1864 3.84108 16.2507 2.09773 13.5099 0.470112L13.5085 0.469306C13.3085 0.350549 13.1096 0.232408 12.9121 0.114655C12.7305 -0.011044 12.4931 -0.0389756 12.2696 0.05879C11.9065 0.212422 11.7389 0.61745 11.8925 0.980579C12.4791 2.36326 13.1216 3.91355 13.6942 5.38003C13.8285 5.75118 13.9727 6.1259 14.1172 6.50149C14.5436 7.60993 14.9729 8.72587 15.1607 9.77948ZM18.9269 28.079C18.3419 27.5104 17.7245 26.9724 17.0741 26.4694C16.6411 26.1482 17.1579 25.4499 17.5909 25.7991V25.813C18.5567 26.5601 19.4526 27.3834 20.2801 28.269C19.9755 19.4857 9.63367 17.5826 2.26454 18.5216C2.65852 18.8729 3.06854 19.2425 3.48848 19.6209C5.46871 21.4056 7.66951 23.3891 9.44839 24.598C12.3133 26.3589 15.6357 27.3409 18.9269 28.079ZM17.0773 7.41888C16.4181 6.37731 15.6904 5.39093 14.869 4.4872C15.2545 5.43748 15.6202 6.39264 15.9398 7.36673C15.9572 7.35981 15.9772 7.35795 15.9987 7.36332L16.0126 7.37729L17.0773 7.41888ZM33.8303 18.8225C31.3741 19.6639 29.3283 21.3149 28.0341 23.4725C28.5187 23.3562 29.011 23.2416 29.5078 23.1259C32.2929 22.4775 35.2193 21.7961 37.7166 20.6175C39.9794 19.2838 41.9085 17.4197 43.5241 15.3198C41.9395 15.6436 40.3173 15.5155 38.7038 15.3882C37.0207 15.2554 35.3471 15.1233 33.7361 15.5057C30.5656 16.1574 27.7887 19.0803 27.7964 22.3274C28.6253 21.1445 29.6589 20.1194 30.9065 19.3277C30.9101 19.2586 30.9301 19.185 30.9708 19.109H30.9847C31.5993 17.9778 32.2976 16.7766 33.3032 15.9107C33.387 15.8269 33.5127 15.8409 33.5965 15.9107C33.6663 15.9805 33.6663 16.1062 33.5965 16.19C32.9781 16.9132 32.5642 17.7466 32.2073 18.6251C32.8879 18.3165 33.6206 18.0698 34.4065 17.8939C35.0632 17.7149 35.7651 17.6113 36.4701 17.5072C37.9095 17.2948 39.3618 17.0804 40.468 16.218C40.6635 15.9805 41.0406 16.3157 40.8032 16.5392C39.5911 17.5782 38.0807 17.8618 36.5825 18.143C36.1599 18.2224 35.7382 18.3015 35.3245 18.3974C36.1141 18.6185 36.9467 18.7556 37.7864 18.8856C37.9121 18.8996 37.9959 19.0252 37.982 19.137C37.968 19.2487 37.8702 19.3325 37.7585 19.3325C36.5713 19.3325 35.3563 19.2906 34.1272 19.0113C33.988 18.9794 33.8909 18.9101 33.8303 18.8225Z" fill="#3A4B3C"/>
</svg>
