<svg width="120" height="120" viewBox="0 0 120 120" fill="none" xmlns="http://www.w3.org/2000/svg">
<path fill-rule="evenodd" clip-rule="evenodd" d="M114.295 15.478C112.357 18.5149 65.854 53.6939 60.3762 57.8256C61.0263 58.7034 61.34 59.8203 61.0986 61.1571C61.0766 61.2934 61.051 61.4284 61.0217 61.5621C61.0949 61.6305 61.1504 61.7197 61.1778 61.8252C63.8382 71.5497 60.6571 82.5761 53.6156 88.0439C48.8042 91.7912 42.4986 93.6591 36.1363 93.6591V93.6478C29.9099 93.6478 23.6269 91.8477 18.6345 88.2478C18.3854 88.0666 18.3288 87.7157 18.5099 87.4552C18.6911 87.2062 19.042 87.1383 19.3024 87.3307C28.7842 94.1714 43.0774 94.248 52.2619 87.6345C52.118 87.5649 52.0196 87.4038 52.1099 87.2174C52.2588 86.8926 52.4061 86.5657 52.5512 86.2364C50.4482 86.873 48.3132 87.3994 46.1571 87.8228C46.0776 87.9909 45.9975 88.1586 45.9168 88.326C45.8194 88.5279 45.7212 88.7292 45.6223 88.9302C45.5241 89.1296 45.4252 89.3284 45.3259 89.527C45.2644 89.65 45.2027 89.7727 45.1407 89.8954L44.9577 90.2569C44.8665 90.4365 44.7751 90.6157 44.6835 90.7948C44.525 91.1231 43.993 90.8741 44.1628 90.5344C44.5747 89.6915 44.9756 88.8383 45.3552 87.9754C43.2912 88.3555 41.2092 88.6427 39.1193 88.8428C38.3989 90.1152 37.5557 91.314 36.6005 92.4137C36.4647 92.5722 36.2043 92.3684 36.3401 92.1987C37.1414 91.1642 37.8435 90.0597 38.441 88.9047C36.9356 89.0353 35.4266 89.1211 33.9175 89.1647C33.4725 89.171 33.0272 89.1731 32.5815 89.1688C32.5441 89.2211 32.5066 89.2731 32.4689 89.3251L32.3743 89.4549L32.3213 89.527C31.7666 90.2402 31.1779 90.9194 30.442 91.4628C30.4178 91.483 30.3878 91.4931 30.3572 91.4946C30.3019 91.4975 30.2447 91.4725 30.2156 91.4288C30.1877 91.3952 30.179 91.3534 30.1843 91.3127C30.1868 91.2933 30.1926 91.2742 30.2009 91.2564C30.206 91.2454 30.2121 91.2349 30.219 91.2253C30.2221 91.2208 30.2255 91.2166 30.2289 91.2125C30.2319 91.2091 30.235 91.2056 30.2382 91.2025C30.8835 90.6478 31.4156 89.9345 31.8911 89.21L31.9238 89.1579C30.2176 89.1167 28.5072 88.9715 26.7967 88.6213C26.4911 88.5533 26.2986 88.259 26.3552 87.9534C26.4232 87.6364 26.7401 87.4439 27.0458 87.5232C28.8569 87.8453 30.6886 88.0446 32.5303 88.1367C32.9973 87.3043 33.4211 86.4279 33.7597 85.5294C32.3793 85.4914 30.9998 85.3879 29.6269 85.2137C29.2376 85.1658 29.0923 84.8264 29.1541 84.5323C25.7342 85.8569 22.1873 86.8553 18.5528 86.9928C16.2477 90.5597 12.6462 93.6753 8.18544 93.9193C4.58538 93.9193 4.54012 90.908 6.66843 88.7571C8.17411 87.1155 9.96274 85.8816 11.7854 84.7496C11.8042 84.7373 11.8234 84.7265 11.843 84.7169C11.4426 84.1593 11.1745 83.5119 11.1061 82.7912C10.6646 78.2289 15.8948 73.4968 19.0646 70.7686C23.4684 67.4062 28.0533 64.4289 33.0005 61.961C36.2398 60.4 39.6405 59.2943 43.0857 58.3985C46.0184 56.7782 49.292 55.8018 52.6405 55.5537C58.7705 50.9045 108.587 13.1317 112.676 12.5798C113.457 12.4779 114.216 12.8628 114.567 13.5533C114.906 14.1987 114.793 14.9459 114.295 15.478ZM33.265 88.1677C35.1238 88.2321 36.9914 88.1897 38.8568 88.0565C39.275 87.1545 39.6311 86.2257 39.9225 85.2788C38.1891 85.464 36.4432 85.5562 34.6966 85.5453C34.297 86.4584 33.809 87.3286 33.265 88.1677ZM39.5725 88.0009C41.6226 87.8292 43.6684 87.5502 45.6955 87.1851C46.1305 86.1519 46.531 85.1051 46.8802 84.0455C45.8683 84.2917 44.8493 84.5126 43.8231 84.7044C42.8159 84.8931 41.8011 85.0521 40.7814 85.1793C40.442 86.1474 40.0378 87.0908 39.5725 88.0009ZM46.5243 87.0308C48.6621 86.6204 50.7767 86.117 52.8511 85.5455C53.375 84.3199 53.8664 83.0661 54.3033 81.792C52.1808 82.5523 50.0266 83.2354 47.8396 83.804C47.4504 84.9027 47.0039 85.9756 46.5243 87.0308ZM53.4138 85.9684C53.2212 86.3866 53.0249 86.8021 52.8256 87.2152L52.925 87.1383C53.5299 86.6682 54.1189 86.1362 54.6852 85.5483C54.2628 85.693 53.839 85.833 53.4138 85.9684ZM54.8939 85.328C54.9063 85.163 54.7612 84.9803 54.5665 85.0552C54.2839 85.1388 54.0003 85.2215 53.716 85.3027C54.2832 84.0354 54.8122 82.7455 55.2804 81.4357C55.9856 81.1742 56.6872 80.9049 57.3854 80.6289C57.6684 80.5269 57.4873 80.1081 57.2269 80.2101C56.6505 80.4256 56.071 80.636 55.4885 80.8405C55.8651 79.7376 56.1967 78.6208 56.47 77.4919C57.549 77.0112 58.6097 76.4934 59.6495 75.942C59.9439 75.7948 59.6948 75.3533 59.4231 75.5005C58.5074 75.9536 57.5773 76.38 56.6346 76.7776C56.8401 75.8387 57.0036 74.8916 57.1176 73.9372C58.2447 73.39 59.3523 72.8094 60.4533 72.2289C60.8269 72.0365 60.5212 71.4591 60.159 71.6515C59.1852 72.1736 58.2006 72.6542 57.2051 73.0951C57.3221 71.7663 57.3398 70.4241 57.2382 69.0703H57.2269C57.159 68.3231 56.0156 68.459 56.1061 69.1949C56.2552 70.6453 56.2547 72.1013 56.1335 73.5526C53.9219 74.4623 51.6561 75.1827 49.3325 75.7343C49.3399 75.3632 49.3393 74.9922 49.3307 74.6215C49.3381 74.5711 49.3403 74.5171 49.3363 74.459H49.3264L49.325 74.4137C49.3208 74.309 49.2887 74.2103 49.2348 74.1265C49.1977 74.0688 49.1503 74.0181 49.0947 73.9772C50.5167 72.9724 51.9047 71.9185 53.2533 70.8138C53.6451 70.478 54.0564 70.1364 54.477 69.7871C56.6894 67.95 59.1592 65.8992 60.395 63.3485C62.3535 72.1804 59.3754 80.5182 54.8939 85.328ZM49.291 76.7662C50.4462 76.4859 51.5953 76.1675 52.7326 75.7836C53.8644 75.3953 54.9647 74.9395 56.0439 74.4447C55.9359 75.3686 55.7812 76.2898 55.5873 77.2056C53.4472 78.0516 51.2484 78.7477 49.0154 79.2691C49.1487 78.4404 49.2404 77.6043 49.291 76.7662ZM48.2535 77.008C48.2172 77.8428 48.1312 78.6713 48.0029 79.493C45.9892 79.9134 43.9509 80.1897 41.9057 80.3044C41.9595 79.8409 41.9988 79.3751 42.0232 78.908H42.0118C42.0193 78.7394 41.9691 78.6067 41.8863 78.5102C42.5342 78.1479 43.1775 77.7773 43.8157 77.3981C43.8913 77.6474 44.1194 77.8497 44.4571 77.7874C45.7227 77.5395 46.9907 77.2914 48.2535 77.008ZM48.2725 75.9733C48.2698 75.5653 48.2546 75.1558 48.2262 74.7448C48.2116 74.7011 48.2014 74.6537 48.1965 74.6022C47.2298 75.2647 46.2481 75.9052 45.2532 76.5242C46.2704 76.3695 47.2767 76.1864 48.2725 75.9733ZM48.857 80.1526C51.0982 79.5806 53.2933 78.8356 55.4221 77.9447C55.1664 79.0327 54.8578 80.1118 54.5091 81.1778C52.4047 81.8884 50.2646 82.5184 48.1005 83.0367L48.125 82.9609C48.4248 82.0425 48.6687 81.1036 48.857 80.1526ZM47.8442 80.3984C47.657 81.3624 47.4144 82.3169 47.1283 83.2615C45.1266 83.7079 43.1061 84.0553 41.076 84.2793C41.3684 83.3191 41.5977 82.338 41.7605 81.3438C43.813 81.1802 45.8456 80.8589 47.8442 80.3984ZM40.8344 80.3496C40.8627 79.9215 40.8779 79.4928 40.8798 79.0642C40.0713 79.5022 39.2559 79.9276 38.4345 80.3405C39.2344 80.3694 40.0347 80.3722 40.8344 80.3496ZM36.7533 81.1643C36.4278 81.3197 36.1013 81.4734 35.774 81.6252L35.5717 81.7204C35.6572 81.8246 35.7045 81.9672 35.6835 82.1459V82.1572C35.5616 82.9934 35.3568 83.792 35.0861 84.5597C36.7864 84.5941 38.4866 84.5261 40.1809 84.3699C40.4349 83.3968 40.6214 82.4079 40.7375 81.4122C39.9083 81.4568 39.0761 81.4754 38.242 81.4665C37.7828 81.4596 37.6144 81.0207 37.7288 80.6914C37.4045 80.8509 37.0793 81.0085 36.7533 81.1643ZM34.5407 82.2024C34.4816 82.9786 34.3254 83.7582 34.0973 84.528C32.7666 84.4697 31.4364 84.347 30.1092 84.1531C31.6132 83.5416 33.0914 82.8758 34.5407 82.2024ZM113.378 14.8213C111.783 17.3256 74.3638 45.8518 59.5964 57.0064C59.4848 56.9135 59.3687 56.8248 59.2487 56.7404C71.6056 47.2532 93.412 30.5198 105.261 21.4327L108.589 18.8742C108.66 18.8139 108.733 18.7553 108.806 18.6978C108.961 18.5754 109.119 18.4581 109.277 18.341L109.279 18.3394L109.282 18.3369C109.955 17.8383 110.62 17.3452 111.023 16.4968C111.204 16.0893 110.899 15.5798 110.514 15.5346C110.151 15.4666 109.823 15.6251 109.574 15.727C108.747 16.1247 107.883 16.7858 107.081 17.3992C106.913 17.5279 106.747 17.6545 106.586 17.7761L106.452 17.8757C106.312 17.9797 106.175 18.0792 106.042 18.1723L90.6028 29.6239C78.8581 38.3361 64.735 48.8124 55.6716 55.5301C55.6088 55.5258 55.5462 55.5222 55.4835 55.5194C55.1869 55.5045 54.8902 55.4955 54.5937 55.4922C76.9783 38.5112 109.994 14.0778 112.823 13.7005C113.197 13.6553 113.457 13.8704 113.559 14.0742C113.627 14.1987 113.706 14.4591 113.491 14.6854C113.475 14.7017 113.453 14.7233 113.433 14.7464C113.41 14.7712 113.39 14.7978 113.378 14.8213ZM57.2137 55.7957L83.0722 36.5459C87.3469 33.3677 93.2848 28.9473 98.8233 24.8234L108.317 17.7534L108.438 17.6649L108.579 17.5605L108.716 17.4583C108.788 17.4048 108.86 17.3517 108.932 17.2995C109.085 17.1884 109.238 17.0814 109.393 16.983C109.133 17.2159 108.842 17.4343 108.556 17.6484C108.352 17.8014 108.151 17.9522 107.966 18.1044L103.429 21.5931C101.239 23.2788 98.0675 25.7225 94.8684 28.187L91.0453 31.1323C88.497 33.0955 86.1961 34.8675 84.691 36.0251L58.4236 56.2541C58.0401 56.0661 57.6331 55.913 57.2137 55.7957ZM55.5573 56.6528C55.6764 56.7105 55.8118 56.7256 55.9396 56.6931C58.252 56.9985 60.4583 58.4056 59.9665 61.0213C59.8193 62.3572 59.1967 63.3761 58.3703 64.395C56.6948 66.4893 54.657 68.2666 52.5401 69.9307C49.3589 72.4667 46.042 74.844 42.5099 76.8592C37.7778 79.4629 32.8646 81.9647 27.8043 83.81C23.7401 85.1459 12.2721 88.8138 12.159 81.727C13.8958 75.3444 20.0957 71.2183 25.444 67.6591L25.4469 67.657C25.7798 67.4355 26.1094 67.2162 26.4344 66.9987C30.6299 64.134 35.1808 62.0363 39.9475 60.4858L39.8156 60.5911C39.5098 60.8533 39.5927 61.2287 39.8216 61.4316C37.2521 62.5599 34.8285 63.825 34.1778 64.1798L34.0319 64.2623C28.7701 67.2336 15.1536 74.9234 14.5816 80.9685C14.5363 82.3384 15.8269 83.3346 16.9929 83.6855C20.2533 84.8515 23.7514 83.6741 26.7967 82.5987C36.8495 78.6025 46.4042 73.1119 54.5778 65.9911C56.4005 64.4062 60.2835 60.0704 55.9929 59.0062C52.9591 58.5499 49.9251 59.1759 46.9527 59.8664C46.5169 59.0084 44.0621 59.6974 41.4053 60.7643C42.0651 60.2863 42.7598 59.845 43.4819 59.4431C45.2899 58.9614 47.123 58.5478 48.9741 58.1911C49.4872 58.0709 49.512 57.4909 49.2295 57.2148C51.2622 56.7292 53.3489 56.5255 55.3703 56.6402C55.4325 56.6435 55.4949 56.6478 55.5573 56.6528ZM15.691 80.9458C16.4824 74.9439 35.8026 63.4563 44.2365 61.042C44.2854 61.2384 44.434 61.4088 44.6529 61.4337C42.9148 62.1679 41.2434 63.0294 39.634 63.9901C39.2033 63.883 38.7768 63.7618 38.3552 63.625V63.6137C37.6533 63.2628 37.1552 64.3495 37.8797 64.6439C38.0391 64.6914 38.1988 64.7368 38.3586 64.7801C37.1363 65.5645 35.9505 66.4039 34.7992 67.2856C34.2284 67.1568 33.6624 67.0089 33.1024 66.8402H33.1138C32.8194 66.7157 32.4571 66.8629 32.3552 67.1799C32.2534 67.4742 32.4119 67.7912 32.7062 67.8931C33.0259 68.002 33.3452 68.0957 33.6642 68.1766C33.013 68.7005 32.3731 69.237 31.7439 69.7836L31.5321 69.9751C31.4293 70.0684 31.3264 70.1619 31.2238 70.2556C30.5182 70.0091 29.8228 69.7212 29.1401 69.3874C28.8571 69.2515 28.5061 69.3874 28.3816 69.6816C28.2684 69.9759 28.4043 70.3043 28.6873 70.4288C28.9828 70.5534 29.2811 70.6721 29.582 70.7846C29.838 70.8803 30.0958 70.9716 30.3553 71.0584C29.2989 72.0473 28.2644 73.0647 27.2738 74.1213C26.1021 73.8405 24.9419 73.5014 23.7967 73.1005C23.491 72.9986 23.1628 73.1684 23.0722 73.4741C22.9816 73.7685 23.1628 74.0854 23.4571 74.176C24.4577 74.4726 25.4721 74.7397 26.4963 74.9694C25.6027 75.967 24.7518 77.0005 23.9614 78.0782C23.0809 77.7628 22.2294 77.3468 21.4193 76.8137H21.4081C20.7514 76.4175 20.1741 77.4364 20.842 77.7986C21.6446 78.272 22.4897 78.6421 23.3619 78.9214C22.5303 80.1294 21.7769 81.393 21.1251 82.7232L21.1364 82.7119C21.085 82.818 21.101 82.9138 21.152 82.9861C18.4644 83.3584 16.3579 82.9105 15.691 80.9458ZM31.1989 71.323C30.1205 72.2792 29.0836 73.2771 28.0992 74.3092C29.2094 74.5486 30.3291 74.7365 31.4554 74.8762C32.3486 73.8788 33.2864 72.9218 34.2631 72.0042C33.2294 71.8459 32.2039 71.6178 31.1989 71.323ZM39.3062 75.1043C38.7379 75.1385 38.1697 75.1623 37.6018 75.1753C38.5868 74.143 39.598 73.1372 40.6415 72.1686C42.3124 72.0415 43.9711 71.8108 45.611 71.5436C43.639 72.8431 41.6151 74.0679 39.5748 75.2459C39.5598 75.2192 39.5408 75.1949 39.518 75.1742C39.5043 75.1616 39.4891 75.1504 39.4726 75.1409C39.4272 75.1146 39.3716 75.1004 39.3062 75.1043ZM38.6887 75.754C38.1145 75.7951 37.539 75.8285 36.9624 75.8528C36.447 76.4049 35.9386 76.9639 35.4363 77.5277C36.133 77.1639 36.748 76.8328 37.2557 76.5551C37.5558 76.391 37.8184 76.2456 38.0382 76.1231C38.2552 76.0006 38.4719 75.8776 38.6887 75.754ZM34.9251 77.4024C35.3455 76.8894 35.7734 76.3814 36.2086 75.8792C34.6643 75.9218 33.1146 75.8926 31.5682 75.7591C30.6554 76.7635 29.7895 77.8109 28.9773 78.9022C29.9461 78.9076 30.9218 78.8395 31.891 78.7156C32.1805 78.6769 32.2726 79.0578 32.0832 79.1992C33.1384 78.6996 34.1273 78.2049 35.0053 77.7516C34.9271 77.7085 34.8682 77.626 34.8703 77.537C34.8714 77.4924 34.8879 77.4461 34.9251 77.4024ZM32.3015 74.972C33.7984 75.1253 35.3058 75.1946 36.8169 75.1865C37.7171 74.1749 38.6479 73.1885 39.6096 72.2333C38.8051 72.2725 37.998 72.2848 37.1892 72.2627C36.5474 72.2477 35.9046 72.205 35.2634 72.1352C34.2348 73.0381 33.2452 73.9834 32.3015 74.972ZM36.1812 71.3493C37.5585 71.5006 38.9532 71.5443 40.3504 71.5097C41.3363 70.5627 42.3537 69.649 43.4028 68.7745C42.0938 68.8376 40.7824 68.8531 39.4721 68.8172C38.342 69.6188 37.2427 70.4625 36.1812 71.3493ZM44.2194 69.1155C43.2548 69.8658 42.3189 70.6526 41.408 71.4692C42.85 71.3947 44.2907 71.2448 45.7137 71.0515C45.8828 71.0255 45.9809 71.1676 45.9758 71.3019C47.5663 70.2426 49.1215 69.1334 50.6224 67.9589C48.687 68.2988 46.733 68.5473 44.7714 68.6913C44.6883 68.7542 44.6055 68.8173 44.5228 68.8807C44.4214 68.9585 44.3202 69.0368 44.2194 69.1155ZM50.7741 67.3949C49.1621 67.5996 47.5159 67.7788 45.858 67.8945C47.2085 66.9347 48.6086 66.0503 50.0502 65.2383C51.5322 65.0688 53.0079 64.8541 54.4678 64.6404C54.2554 64.853 54.0507 65.0523 53.8646 65.2326C52.959 66.0539 52.0254 66.8439 51.0686 67.6065C51.0598 67.564 51.0421 67.5234 51.0165 67.489C51.0111 67.4818 51.0054 67.4749 50.9994 67.4683C50.9948 67.4633 50.99 67.4585 50.985 67.4538C50.9337 67.4061 50.862 67.3798 50.7741 67.3949ZM40.6488 68.0049C41.8889 68.0491 43.1354 68.0353 44.3792 67.9796C45.4991 67.0891 46.654 66.244 47.844 65.4511C46.7614 65.5334 45.678 65.5796 44.5974 65.5716C43.2522 66.3316 41.9328 67.1423 40.6488 68.0049ZM46.2066 64.6927C47.2019 64.6895 48.2005 64.6485 49.1948 64.5831C50.8552 63.5555 52.5814 62.6303 54.3741 61.825C54.6571 61.6892 54.9967 61.8137 55.1326 62.0967C55.2684 62.3797 55.1439 62.7194 54.8609 62.8553C53.7701 63.3273 52.6962 63.8352 51.642 64.3795C52.1246 64.3323 52.6046 64.2817 53.0812 64.2296C53.5344 64.18 53.9845 64.129 54.4307 64.0779C54.6244 64.0466 54.7422 64.2017 54.748 64.3564C56.5899 62.4647 58.6492 59.8005 54.2722 59.8779C51.6864 59.8963 49.1158 60.4122 46.5725 61.0071C46.8397 61.2689 46.8538 61.796 46.3816 61.9609C44.6605 62.6091 42.928 63.402 41.2144 64.3187C42.1903 64.4843 43.1828 64.5875 44.1838 64.6426C45.9303 63.6126 47.7227 62.6668 49.5401 61.8025C50.208 61.4968 50.6948 62.5044 50.0156 62.8326C48.7324 63.4111 47.4602 64.0307 46.2066 64.6927ZM27.3202 75.1454C28.4553 75.3759 29.6012 75.5581 30.7521 75.6811C29.8767 76.7077 29.0483 77.7754 28.2733 78.8851C27.0521 78.8317 25.8472 78.6533 24.6855 78.3134C25.5036 77.2312 26.3853 76.1729 27.3202 75.1454ZM24.0833 79.1305C25.2838 79.4431 26.5265 79.5954 27.7728 79.6186C27.5953 79.885 27.4209 80.154 27.2495 80.4251H27.2382C27.0458 80.7194 27.5212 81.0138 27.7023 80.7194C27.9477 80.3478 28.1991 79.9808 28.4564 79.6186C29.6377 79.5969 30.8162 79.4644 31.9589 79.2477L31.9724 79.2458L31.9787 79.2445L31.9959 79.2405C28.7402 80.7775 24.8708 82.3512 21.6949 82.9012C22.397 81.6231 23.1981 80.3628 24.0833 79.1305ZM35.1271 71.2116C36.0792 70.3587 37.0648 69.5414 38.0788 68.7593C37.8124 68.7445 37.546 68.7273 37.2798 68.7081C36.4444 68.6401 35.6125 68.5585 34.7802 68.4135C33.8673 69.0923 32.9728 69.8023 32.1024 70.5399C33.0947 70.8362 34.1049 71.056 35.1271 71.2116ZM36.0054 67.5289C37.0548 67.7163 38.1181 67.8448 39.189 67.9249C40.351 67.074 41.5463 66.267 42.7678 65.5028C41.7689 65.4331 40.7743 65.3082 39.7869 65.1135C38.5065 65.8546 37.2417 66.6626 36.0054 67.5289ZM12.572 85.5173C12.5249 85.5953 12.4582 85.6627 12.3741 85.7118V85.7005C10.5514 86.5948 2.55899 92.4364 8.18544 92.9004C11.9653 92.753 15.3241 90.0694 17.4786 87.008C17.394 87.0072 17.3093 87.0058 17.2247 87.0039L17.1399 87.002L16.9927 86.9977C16.9049 86.9949 16.8171 86.9914 16.7292 86.9876C16.7233 87.0991 16.6784 87.2097 16.5968 87.2967C15.2609 88.61 11.242 91.9043 9.38544 90.2176C8.48905 88.5941 11.0888 86.6813 12.5517 85.6051L12.6173 85.5569L12.572 85.5173ZM13.5849 86.2253C14.237 86.5835 14.9532 86.8179 15.6514 86.908C14.2126 88.1805 12.3968 89.5258 10.5514 89.6629C10.3363 89.6629 10.1778 89.5835 10.2005 89.5835C10.5793 88.3433 11.8925 87.4196 13.0474 86.6074C13.2321 86.4775 13.4128 86.3504 13.5849 86.2253Z" fill="#3A4B3C"/>
<path d="M44.3778 98.7534C44.0722 98.7534 43.8231 98.5156 43.8118 98.2101C43.8118 97.8931 44.0496 97.6327 44.3552 97.6214H44.5589C44.876 97.5874 45.1363 97.8477 45.1477 98.1534C45.159 98.4704 44.9212 98.7308 44.6043 98.7421H44.3665L44.3778 98.7534Z" fill="#3A4B3C"/>
<path d="M48.8948 99.2627C48.9537 99.3069 49.0189 99.3426 49.0897 99.3688C49.1821 99.4031 49.2839 99.4212 49.3929 99.4212V99.4099H49.5514C49.8458 99.376 50.0269 99.1155 50.0043 98.81C49.9816 98.5835 49.8005 98.3911 49.5854 98.3231C49.5416 98.2843 49.4917 98.2537 49.4363 98.2315C49.3627 98.2021 49.2796 98.1873 49.1892 98.1873C48.8722 98.2099 48.6345 98.4703 48.6571 98.7873C48.6684 98.9458 48.7703 99.1608 48.8948 99.2627Z" fill="#3A4B3C"/>
<path d="M45.9175 102.761C45.6344 102.761 45.3853 102.546 45.3514 102.252C45.3174 101.946 45.5438 101.663 45.8609 101.629H46.0533C46.3702 101.595 46.642 101.821 46.6646 102.127C46.6873 102.444 46.4608 102.716 46.1439 102.738H45.974C45.974 102.738 45.94 102.75 45.9175 102.75V102.761Z" fill="#3A4B3C"/>
<path d="M55.7325 101.912C55.8344 102.048 55.9816 102.116 56.1401 102.116C56.2646 102.116 56.3891 102.082 56.5023 101.991C56.7514 101.799 56.774 101.425 56.5816 101.176C56.5816 101.165 56.5477 101.119 56.5477 101.119C56.3552 100.87 56.0042 100.825 55.7552 101.018C55.5061 101.21 55.4608 101.561 55.6533 101.81L55.7325 101.912Z" fill="#3A4B3C"/>
<path d="M50.3892 107.436C50.1854 107.436 50.0496 107.334 49.9929 107.267C49.7552 107.04 49.7552 106.723 49.9929 106.349C50.1627 106.089 50.5137 106.01 50.774 106.168C50.9325 106.27 51.0345 106.44 51.0345 106.621C51.125 106.859 51.0684 107.119 50.8533 107.267C50.6722 107.391 50.525 107.425 50.3892 107.425V107.436Z" fill="#3A4B3C"/>
<path d="M43.3703 105.976C43.4722 106.168 43.676 106.27 43.8911 106.27L43.8797 106.248C43.9477 106.248 44.0042 106.248 44.0608 106.225L44.1741 106.191C44.4684 106.101 44.6382 105.784 44.5477 105.489C44.4571 105.195 44.1401 105.025 43.8458 105.116L43.7099 105.161L43.7552 105.308L43.642 105.172L43.4722 105.308C43.291 105.478 43.2571 105.761 43.3703 105.976Z" fill="#3A4B3C"/>
<path d="M53.4797 103.236C53.3891 103.236 53.2986 103.214 53.2194 103.168C53.1174 103.112 53.0382 103.033 52.9816 102.931C52.7778 102.818 52.642 102.58 52.6872 102.342C52.7438 102.036 53.0043 101.821 53.3212 101.878L53.3231 101.878C53.4497 101.901 53.8315 101.97 54.0005 102.308C54.0797 102.467 54.0684 102.772 53.9892 102.931C53.8872 103.123 53.6948 103.236 53.491 103.236H53.4797Z" fill="#3A4B3C"/>
<path d="M47.6091 105.017C47.638 105.033 47.6684 105.047 47.6999 105.059C47.7629 105.081 47.8301 105.093 47.8986 105.093V105.082C47.9891 105.082 48.0797 105.059 48.1703 105.014H48.3401C48.6344 105.048 48.9287 104.821 48.9514 104.504C48.9853 104.199 48.7476 103.915 48.442 103.893C48.125 103.87 47.8533 103.915 47.6269 104.04C47.3551 104.187 47.2533 104.527 47.4005 104.799C47.4156 104.827 47.4327 104.854 47.4515 104.878C47.4853 104.922 47.5246 104.96 47.5681 104.99C47.5814 105 47.595 105.008 47.6091 105.017Z" fill="#3A4B3C"/>
<path d="M36.3806 103.17C36.3126 103.142 36.2487 103.1 36.193 103.044C35.9779 102.817 35.9779 102.455 36.2042 102.24L36.6344 101.833C36.8609 101.617 37.2231 101.617 37.4382 101.844C37.6533 102.07 37.6533 102.433 37.4269 102.648L36.9967 103.067C36.8835 103.168 36.7477 103.225 36.6005 103.225V103.214C36.5257 103.214 36.451 103.199 36.3806 103.17Z" fill="#3A4B3C"/>
<path d="M41.7854 103.621C41.8873 103.689 41.9891 103.723 42.1024 103.723H42.125C42.3061 103.723 42.476 103.633 42.5892 103.474C42.759 103.236 42.7023 102.908 42.4872 102.727V102.704C42.6344 102.433 42.5326 102.082 42.2609 101.935C41.9891 101.787 41.6382 101.889 41.4911 102.161C41.2872 102.535 41.2081 102.727 41.242 102.953C41.2533 103.044 41.3439 103.236 41.4005 103.304C41.4797 103.395 41.5929 103.497 41.7854 103.621Z" fill="#3A4B3C"/>
<path d="M56.0155 105.161C55.8985 105.161 55.7739 105.142 55.6354 105.103C55.5329 105.073 55.4228 105.033 55.3023 104.98C55.0193 104.855 54.8721 104.527 54.9966 104.244C55.1212 103.95 55.4495 103.814 55.7325 103.938C55.8094 103.972 55.8686 103.994 55.9125 104.007C55.9407 104.016 55.9626 104.021 55.9789 104.024C56.0041 104.029 56.0155 104.029 56.0155 104.029C56.3212 103.961 56.6042 104.153 56.6722 104.459C56.7401 104.765 56.525 105.07 56.2193 105.138C56.1514 105.15 56.0835 105.161 56.0155 105.161Z" fill="#3A4B3C"/>
<path d="M34.9136 99.3533C34.9929 99.4667 35.1401 99.6025 35.4004 99.6025C35.5137 99.6025 35.6382 99.5798 35.7854 99.5232C36.0571 99.41 36.159 99.1157 36.0571 98.8326C36.0528 98.8241 36.0485 98.817 36.0448 98.8111C36.0388 98.8014 36.0345 98.7944 36.0345 98.7873C36.0279 98.7085 36.0023 98.6335 35.962 98.5667C35.9529 98.5517 35.9431 98.537 35.9325 98.5228C35.9093 98.4916 35.8827 98.4626 35.8533 98.4364C35.6155 98.2213 35.2533 98.2439 35.0495 98.4818C34.6986 98.8666 34.7891 99.1723 34.9136 99.3533Z" fill="#3A4B3C"/>
<path d="M39.5156 96.4552C39.4798 96.4548 39.4441 96.4509 39.4084 96.4434C39.3554 96.4324 39.3025 96.4137 39.2496 96.3873L39.2313 96.3771L39.207 96.3638C39.1862 96.3528 39.1645 96.342 39.159 96.342C38.8873 96.1948 38.7515 95.8213 38.8986 95.5496C39.0458 95.2779 39.3514 95.1533 39.6231 95.3004L39.7816 95.3911C40.0533 95.5383 40.1552 95.8891 40.0081 96.1608C39.9071 96.3514 39.7172 96.4532 39.5156 96.4552Z" fill="#3A4B3C"/>
<path d="M62.7741 101.561C62.8533 101.765 63.0571 101.912 63.2948 101.912V101.923C63.6119 101.923 63.8609 101.674 63.8609 101.357V101.017C63.8609 100.768 63.7024 100.531 63.476 100.451C63.2609 100.372 62.9552 100.497 62.8081 100.689L62.7175 100.802C62.5364 101.029 62.559 101.357 62.7741 101.561Z" fill="#3A4B3C"/>
<path d="M52.9363 98.81C52.7778 98.81 52.6194 98.7421 52.5061 98.6176C52.3476 98.4478 52.291 98.1081 52.393 97.9044C52.4495 97.7911 52.642 97.5421 53.0835 97.576C53.3892 97.61 53.6156 97.8817 53.593 98.1986C53.5816 98.3458 53.5024 98.4816 53.4005 98.5723L53.3908 98.586C53.3855 98.593 53.3797 98.6001 53.3737 98.6071L53.3569 98.6262C53.3426 98.6417 53.3272 98.657 53.3118 98.6725L53.3099 98.6741C53.208 98.7646 53.0722 98.81 52.9363 98.81Z" fill="#3A4B3C"/>
<path d="M62.6835 95.1646C62.7175 95.1759 62.8081 95.1759 62.8081 95.1759L62.8193 95.1872C62.9778 95.1872 63.2043 95.1194 63.3854 94.8024C63.4305 94.7056 63.4499 94.6053 63.4436 94.5076C63.4389 94.4337 63.4195 94.3613 63.3854 94.293C63.3967 94.225 63.408 94.1458 63.4307 94.0665C63.5099 93.7608 63.3174 93.4551 63.0118 93.3873C62.7061 93.3193 62.4005 93.5005 62.3325 93.8061C62.2871 94.0016 62.2599 94.1478 62.2436 94.2615C62.2194 94.4311 62.2194 94.5286 62.2194 94.6099C62.2307 94.859 62.4345 95.1081 62.6835 95.1646Z" fill="#3A4B3C"/>
<path d="M58.7384 102.07C58.424 102.067 58.1778 101.808 58.1778 101.504C58.1778 101.335 58.3024 101.063 58.4382 100.961C58.7099 100.746 59.0496 100.802 59.2759 100.859C59.5816 100.938 59.7628 101.244 59.6835 101.55C59.6156 101.833 59.3439 102.002 59.0609 101.969C59.0256 101.995 58.9868 102.016 58.9452 102.032C58.8818 102.057 58.812 102.07 58.7384 102.07Z" fill="#3A4B3C"/>
<path d="M57.7023 90.8741C57.7703 90.8968 57.8382 90.9081 57.9062 90.9081V90.9194C58.0986 90.9194 58.291 90.8176 58.3929 90.6478C58.6873 90.5459 58.8457 90.2176 58.7439 89.9232C58.642 89.6289 58.3137 89.4704 58.0193 89.5723C57.7854 89.6525 57.6304 89.7722 57.5287 89.894C57.4995 89.929 57.4747 89.9643 57.4536 89.9987C57.4239 90.0474 57.4017 90.0948 57.3854 90.1384C57.2722 90.4327 57.408 90.7609 57.7023 90.8741Z" fill="#3A4B3C"/>
<path d="M39.3401 106.927C39.2043 106.927 39.0684 106.882 38.9552 106.78C38.7288 106.565 38.7061 106.214 38.9212 105.976L39.1137 105.761C39.3288 105.534 39.6797 105.512 39.9175 105.727C40.1439 105.942 40.1666 106.293 39.9515 106.531L39.759 106.746C39.6458 106.87 39.4986 106.927 39.3401 106.927Z" fill="#3A4B3C"/>
<path d="M8.51372 69.5797C6.32882 71.6514 5.29866 74.8212 6.09113 77.7081C6.19298 78.1156 6.82694 77.9571 6.72509 77.5496C6.14772 74.9684 7.25713 72.1042 9.23826 70.4514C9.50995 70.2476 9.54394 69.8627 9.31751 69.6137C9.10242 69.3759 8.74015 69.3647 8.51372 69.5797Z" fill="#3A4B3C"/>
<path d="M8.25336 76.4402C7.75525 74.742 8.18544 72.6703 9.5892 71.4817C10.1326 70.9722 10.9137 71.7987 10.359 72.3081C9.09109 73.2138 8.66089 74.776 8.93258 76.293C9.01183 76.7232 8.35521 76.859 8.25336 76.4288V76.4402Z" fill="#3A4B3C"/>
<path d="M67.9251 74.3345C68.9892 72.9421 68.6383 71.1875 68.1402 69.659C67.8458 68.9233 66.7363 69.4327 67.1099 70.1346C67.6533 71.21 68.1741 72.8968 67.4835 73.9836C67.2798 74.2667 67.6986 74.5949 67.9251 74.3345Z" fill="#3A4B3C"/>
<path d="M70.0193 68.2326C71.5023 70.6779 71.0721 74.3232 68.9438 76.2703C68.808 76.3835 68.5929 76.3608 68.4797 76.225C68.4568 76.1975 68.4395 76.1672 68.4275 76.1356C68.412 76.0945 68.4055 76.051 68.4076 76.0079C68.4119 75.9196 68.4521 75.8329 68.525 75.7723C70.1778 74.142 70.4156 70.859 69.1477 68.9572C68.6269 68.3685 69.5552 67.6099 70.0306 68.2439L70.0193 68.2326Z" fill="#3A4B3C"/>
<path d="M63.2948 87.6251C63.1476 87.6251 62.9892 87.5684 62.8873 87.4439C62.769 87.3191 62.6775 87.1867 62.6127 87.0467C62.5657 86.9453 62.5326 86.84 62.5136 86.7307L62.4911 86.5835C62.4344 86.2778 62.6269 85.9383 62.9325 85.8816C63.2382 85.825 63.5212 85.9835 63.5891 86.2892L63.6344 86.5268C63.6344 86.5268 63.6797 86.6175 63.725 86.674C63.9401 86.9005 63.9287 87.2627 63.7024 87.4779C63.6468 87.5279 63.5857 87.567 63.5218 87.594C63.4556 87.6217 63.3865 87.6364 63.3174 87.6364L63.2948 87.6251Z" fill="#3A4B3C"/>
<path d="M56.6043 96.7722C56.7062 96.9647 56.8986 97.0665 57.1024 97.0665V97.0552C57.1929 97.0552 57.2835 97.0325 57.3741 96.9873L58.0533 96.6137C58.325 96.4665 58.4156 96.1156 58.2684 95.8439C58.1213 95.5723 57.7703 95.4816 57.4986 95.6288L56.8194 96.0024C56.5477 96.1496 56.4571 96.5005 56.6043 96.7722Z" fill="#3A4B3C"/>
<path d="M54.0458 94.2251H53.9439C53.6383 94.1685 53.4344 93.8741 53.4911 93.5685C53.5364 93.3534 53.6722 93.0591 54.1251 92.8892C54.3402 92.8101 54.5439 92.7534 54.7364 92.7307C55.0534 92.6854 55.3251 92.9232 55.359 93.2289C55.393 93.5345 55.1666 93.8176 54.8609 93.8515C54.7704 93.8515 54.6571 93.8855 54.5439 93.9308C54.442 94.1118 54.2496 94.2365 54.0458 94.2365V94.2251Z" fill="#3A4B3C"/>
</svg>
