<svg width="120" height="120" viewBox="0 0 120 120" fill="none" xmlns="http://www.w3.org/2000/svg">
<path d="M67.1797 31.2128C68.1868 26.9029 68.9273 22.3709 67.3129 18.0166V18.0017C66.9131 17.0687 65.5209 17.7204 65.9652 18.6238C66.8686 20.3864 67.15 22.5783 67.2241 24.6961C67.2834 26.8289 67.1056 28.9912 66.7205 31.1092C66.7057 31.2276 66.7798 31.346 66.8983 31.3757C67.0167 31.4201 67.15 31.346 67.1797 31.2128Z" fill="#3A4B3C"/>
<path d="M64.2916 21.4082C65.6838 24.0444 65.6838 27.0806 65.2691 29.9243C65.2543 30.0723 65.1062 30.1759 64.9581 30.1611C64.8249 30.1463 64.7212 30.013 64.7212 29.8798C64.81 27.1251 64.4841 24.311 63.0031 22.1636C62.4255 21.3045 63.8029 20.49 64.2768 21.4082H64.2916Z" fill="#3A4B3C"/>
<path fill-rule="evenodd" clip-rule="evenodd" d="M48.6535 57.7475C48.5415 58.3332 48.2119 59.715 47.7527 61.6399C44.9958 73.1951 37.5694 104.324 44.5144 100.351C43.0174 95.1859 45.3168 81.7957 46.4967 74.9249C46.8166 73.062 47.0542 71.6784 47.1115 71.0679C47.3423 69.6778 47.5936 68.2808 47.8445 66.8856L47.8475 66.8617C48.3361 64.1475 48.8234 61.4405 49.1553 58.8047C49.2525 58.0273 50.2662 57.9971 50.5541 58.5507C50.9288 58.0121 51.9833 58.2139 51.8952 59.0566C51.8698 59.341 51.8027 59.9595 51.7065 60.845C50.9689 67.6352 48.5257 90.1297 50.1231 98.1462L50.1476 98.1119C50.3105 97.8897 50.6216 97.8452 50.8585 98.0081C51.0807 98.171 51.1251 98.4969 50.9622 98.719C50.8648 98.8439 50.7677 98.9697 50.6705 99.0959L50.4432 99.3899C51.2186 101.708 52.5986 101.782 54.8783 98.0627C53.7102 94.3953 53.2652 88.1121 53.0137 84.5608C52.9329 83.4192 52.8721 82.5601 52.8136 82.1607C52.2951 74.3113 52.073 66.4468 51.9545 58.5974C51.9545 57.6509 53.4164 57.5909 53.4355 58.5787C53.4256 60.0726 53.5906 87.6326 55.67 96.7635C55.8171 96.6456 56.024 96.6178 56.205 96.7196C56.3237 96.7908 56.4001 96.9043 56.4275 97.0307C56.4394 97.0853 56.4421 97.1424 56.435 97.1996C56.4278 97.2576 56.4106 97.3156 56.3828 97.3713C56.2596 97.5895 56.1348 97.8069 56.0073 98.0233C56.7585 100.365 57.7269 100.459 58.9747 96.7196C59.0784 96.4381 59.3894 96.3048 59.656 96.4084C59.9226 96.5122 60.0707 96.8232 59.967 97.0898C59.9219 97.2048 59.8768 97.3213 59.8315 97.4386C59.4155 98.5154 58.9689 99.671 58.1008 100.526C56.9004 101.461 55.9892 100.755 55.2917 99.1729C55.0926 99.4738 54.8846 99.7721 54.6648 100.067C52.1113 103.185 50.592 102.575 49.6979 100.315C49.0815 101.037 48.4016 101.701 47.5558 102.185C46.3081 102.759 45.4541 102.381 44.8989 101.333C44.5011 101.559 44.0723 101.736 43.6014 101.844C37.6046 102.558 41.8838 82.1477 43.7627 73.1862C44.1064 71.5464 44.3699 70.2899 44.4753 69.6163L47.1747 57.4907C46.4642 55.4302 45.7425 53.3698 45.0201 51.3069L44.5917 50.0835C44.4339 50.0455 44.2872 49.9548 44.179 49.8147V49.7998C43.9064 49.3314 43.8768 48.8883 44.0282 48.4716C42.1543 43.1037 40.3072 37.7139 38.6695 32.2643C38.314 31.2276 38.3437 29.865 38.8176 28.8283C41.3798 23.5853 50.118 20.5493 55.4793 22.6967C57.0493 23.3337 58.2193 25.1257 58.3082 26.7993L58.5303 28.2655C58.8414 30.2204 59.1672 32.1607 59.5375 34.1007C60.1973 37.7862 60.8882 40.7537 61.5374 43.149C61.8967 43.3264 62.1428 43.5903 62.233 43.9646C62.2481 44.0852 62.2363 44.1864 62.2153 44.2822C62.2046 44.3309 62.1916 44.3781 62.1785 44.4256C62.1666 44.4686 62.1546 44.512 62.1442 44.557L62.1359 44.5755L62.1248 44.5981L62.1132 44.6196C62.0992 44.6445 62.0841 44.6675 62.068 44.6888C62.0453 44.719 62.0205 44.7456 61.9942 44.7688C62.6659 47.0581 63.2693 48.7274 63.7141 49.9575C64.1735 51.2285 64.4634 52.0308 64.4844 52.5643L64.9802 53.1429L64.9816 53.1445C70.4443 59.5118 97.5447 91.1002 85.2292 90.7726C85.2495 92.6062 84.2548 93.4561 81.7998 92.793C81.4235 94.5421 79.9179 95.2047 76.7983 94.216C76.6824 96.5222 75.2791 97.1499 71.8746 95.0017C71.2377 94.5721 71.9042 93.6242 72.5262 94.0686C74.7446 95.7216 75.6472 95.379 75.7005 93.8255C75.5824 93.7794 75.4625 93.7313 75.3406 93.6812C75.272 93.653 75.2028 93.6241 75.1329 93.5946C74.4664 93.2983 74.9403 92.2764 75.592 92.5726L75.6096 92.5803C74.7655 86.9602 68.4273 73.7053 65.9889 68.6058L65.9821 68.5917L65.7668 68.141C65.6616 67.921 65.5663 67.721 65.4818 67.543C65.3498 67.2649 65.2442 67.0405 65.1691 66.8766C65.1297 66.7905 65.0987 66.7211 65.0766 66.6692C64.4481 65.3514 63.8093 64.0398 63.1693 62.7259C62.0904 60.5107 61.0082 58.2889 59.967 56.0205C59.597 55.2119 60.7359 54.6064 61.2249 55.2478C61.329 54.6769 62.1737 54.3122 62.5884 54.9687V54.9539C62.633 55.0283 62.6862 55.1146 62.7474 55.2126C62.7065 54.6001 63.5342 54.0604 64.052 54.6693C66.2197 56.763 83.6951 80.8934 85.1352 89.7679C91.196 89.9896 82.8671 78.241 79.6997 73.7732C79.3225 73.2412 79.0185 72.8123 78.8207 72.5193C74.0066 65.9889 68.8212 59.7015 63.4468 53.6146C63.2411 53.6693 63.0018 53.7198 62.7263 53.7711C62.4342 53.8257 62.1016 53.8812 61.7251 53.944C59.3667 54.3374 55.2891 55.0177 48.7213 57.5294C48.715 57.5795 48.7033 57.6272 48.6866 57.6723C48.6771 57.6981 48.666 57.7232 48.6535 57.7475ZM48.4178 56.417C47.5281 53.8046 46.6389 51.1937 45.7559 48.5826C49.0187 46.2218 53.2999 45.2726 57.2066 44.4066L57.2088 44.4061L57.464 44.3497L57.6119 44.3285L57.7385 44.3097C57.8325 44.2956 57.9278 44.2808 58.024 44.266L58.0359 44.2643L58.0405 44.2638L58.0443 44.2633L58.0465 44.2627C58.7801 44.1499 59.5679 44.0288 60.2831 44.0651C60.4625 44.719 60.6483 45.3719 60.8408 46.0233C61.4122 48.0165 62.2854 50.5344 62.9171 52.2684C62.8891 52.2734 62.8616 52.278 62.8354 52.2821L62.7957 52.2881C61.5665 52.4806 60.3076 52.688 59.0931 52.9693C55.4014 53.799 51.9034 55.1708 48.5387 56.7714L48.4213 56.4268L48.4178 56.417ZM57.6892 32.4266C58.3203 35.9242 59.0542 39.4016 59.9563 42.846C57.9854 42.8039 55.2135 43.5115 53.5318 43.9409C53.0937 44.0528 52.7296 44.1457 52.4729 44.2016C52.2258 44.2864 51.8791 44.3922 51.4657 44.5184C50.33 44.8648 48.691 45.3646 47.232 46.0066C45.7053 42.3949 45.298 38.3099 45.1713 34.4119C45.1713 33.9972 44.801 33.6565 44.3863 33.6862C43.9717 33.7158 43.6606 34.0565 43.6903 34.4712C43.8601 36.5237 44.0977 38.5831 44.5176 40.5975C43.3489 37.2579 42.6689 33.7408 42.3721 30.2354V30.2206C42.2832 29.243 40.7874 29.3911 40.8911 30.3687C41.5727 36.0255 43.2062 41.6253 46.2086 46.5006C46.0692 46.575 45.9336 46.651 45.8026 46.7284C45.6075 46.8437 45.4224 46.9625 45.2501 47.0847C43.8504 42.9335 42.4689 38.7809 41.128 34.6193C41.0785 34.4151 41.0107 34.1908 40.9333 33.9521C40.8784 33.7831 40.8187 33.6068 40.7574 33.4253C40.3074 32.0961 39.7637 30.4903 40.3431 29.4208C42.159 25.9295 47.2836 23.5318 51.6332 23.5472C51.4089 23.8571 51.4377 24.2957 51.7323 24.548C52.1095 24.8874 52.4828 25.2365 52.8572 25.5898C52.7739 25.571 52.6902 25.5545 52.6061 25.5404C52.5679 25.5473 52.5329 25.5486 52.4972 25.5498C52.4151 25.5529 52.329 25.556 52.1899 25.629C52.1318 25.6596 52.0644 25.7024 51.9841 25.7626C51.7767 25.9107 51.6582 26.3549 51.7323 26.5623C51.8505 27.0113 52.1479 27.3285 52.4062 27.6038C52.4716 27.6736 52.5344 27.7407 52.5913 27.8065L52.6893 27.9052L52.845 28.0617L53.1322 28.3488C53.4532 28.6692 53.7894 29.0049 54.1229 29.3499C53.5145 29.2656 52.94 30.0387 53.4948 30.6055L53.6078 30.7147L53.5985 30.7241L53.7079 30.8114L57.4492 34.4267C57.5972 34.5748 57.8343 34.3674 57.7157 34.2045L56.773 32.8177C56.8474 32.8289 56.925 32.833 57.0049 32.8271C57.1958 32.8652 57.5619 32.6408 57.6892 32.4266ZM57.4547 31.0996C57.3225 30.3359 57.1948 29.5714 57.071 28.8061C56.9003 28.874 56.7077 28.8755 56.5309 28.8135C55.9679 28.5956 55.4569 28.3555 54.9705 28.1172C55.8794 29.036 56.7508 29.9765 57.4547 31.0996ZM56.8389 27.2169C56.6262 25.8604 56.2766 24.7035 54.8425 24.0888C54.2442 23.8625 53.5961 23.7103 52.9163 23.6262C53.4133 24.0762 53.8946 24.5325 54.3713 24.9845C55.1894 25.7603 55.9936 26.5227 56.8389 27.2169ZM63.2859 52.1903L63.2615 52.1968C63.2728 52.1903 63.2835 52.1861 63.2934 52.1848L63.2859 52.1903ZM84.0634 89.6322C83.6789 89.5551 83.2553 89.445 82.7899 89.2995C82.1382 89.107 81.8124 90.1436 82.4937 90.3362C83.1053 90.4933 83.6636 90.6068 84.171 90.6789C84.1456 91.8427 83.4773 92.3421 81.896 91.8429C81.9563 84.5694 69.3263 65.2829 64.3756 57.7229L64.3715 57.7169C63.9429 57.0624 63.5721 56.496 63.2722 56.0332C65.7021 58.8743 67.949 61.9856 70.1418 65.0695C71.367 66.7285 82.8247 83.3353 84.0634 89.6322ZM80.7589 91.3848C80.5733 87.7138 76.5958 80.511 74.9764 77.5786L74.9729 77.5721C74.7276 77.128 74.5368 76.7824 74.4219 76.5625C70.4574 69.5919 66.0516 62.8776 61.6092 56.1684C62.061 57.2011 62.9487 59.0307 64.0782 61.3584C68.3645 70.1916 76.1319 86.1987 76.7649 93.0578C77.3001 93.2614 77.8383 93.4328 78.3764 93.5353C79.7606 93.8097 80.4582 93.3491 80.6827 92.4245C80.4204 92.3243 80.1454 92.211 79.8574 92.0839C79.2502 91.7877 79.7241 90.8695 80.3166 91.1656C80.3857 91.2013 80.4539 91.2358 80.5209 91.2692C80.6018 91.3094 80.681 91.3479 80.7589 91.3848ZM49.3359 99.1908C47.5596 101.402 46.442 101.714 45.8073 100.706C46.3697 100.25 46.8751 99.7191 47.3667 99.2029L47.4562 99.1091L47.6595 98.8967C47.852 98.7041 47.8372 98.3783 47.6299 98.1858C47.4225 97.9933 47.0967 98.0081 46.9042 98.2155C46.3601 98.831 45.8654 99.3239 45.4168 99.703C44.1142 94.4101 47.4022 76.8239 49.3279 66.5238L49.3355 66.4837C49.6212 64.9551 49.8768 63.588 50.0824 62.4468C49.3985 69.5872 48.8171 76.7572 48.5629 83.9381C48.5595 84.2032 48.5497 84.5731 48.5377 85.0263C48.4551 88.1312 48.2687 95.1496 49.3359 99.1908Z" fill="#3A4B3C"/>
<path d="M57.6888 70.5242L57.6899 70.5335L57.6902 70.5356C58.9232 80.7645 60.3034 92.2139 62.1367 99.6363C62.2347 99.4042 62.3484 99.0399 62.4107 98.7486C62.4934 98.5734 62.5186 98.3216 62.5445 98.0623C62.5975 97.5324 62.6535 96.9714 63.2106 96.9714C63.3241 96.9915 63.4196 97.0506 63.4874 97.1327C63.5701 97.2325 63.6118 97.3663 63.5956 97.5046C63.5629 97.6613 63.5357 97.817 63.5108 97.9716C63.494 98.0757 63.4783 98.1793 63.4627 98.2823C63.3433 99.0688 63.2283 99.8259 62.6921 100.541C62.6033 100.63 62.4699 100.733 62.233 100.763C61.8035 100.792 61.537 100.437 61.3888 100.171C59.8949 95.8238 59.2731 91.2445 58.6528 86.6769C58.3876 84.7237 58.1226 82.7725 57.7899 80.8428L54.5908 57.9458C54.4575 57.0127 55.9237 56.7609 56.0571 57.7532V57.7384C56.5886 61.3993 57.1214 65.8184 57.685 70.4949L57.6866 70.5074L57.6877 70.5156L57.6888 70.5242Z" fill="#3A4B3C"/>
<path d="M66.7057 78.71L59.256 56.05C58.9302 55.1021 57.538 55.6353 57.8491 56.5239L65.4913 79.1099C66.7354 82.8718 67.9794 86.6484 69.0754 90.4548C69.2247 91.0789 69.4077 91.7169 69.5926 92.3616C70.1168 94.189 70.6564 96.0702 70.4886 97.8419C69.8699 97.578 69.2322 96.9058 68.6301 96.2712L68.623 96.2636C68.5461 96.1826 68.4697 96.1024 68.3941 96.0235C68.1868 95.7717 67.8165 95.7569 67.5943 95.9791C67.387 96.1864 67.387 96.5419 67.5943 96.7492C67.7252 96.8855 67.8516 97.0229 67.9777 97.16C68.5366 97.7673 69.0902 98.3689 70.0084 98.8522C71.845 99.5781 71.8005 97.1047 71.5783 96.0087C70.7377 91.3911 69.3241 86.9613 67.9084 82.5247C67.5032 81.2552 67.0979 79.9851 66.7057 78.71Z" fill="#3A4B3C"/>
<path d="M57.4492 56.8941C58.2513 60.3953 59.0877 63.8893 59.924 67.383C62.47 78.0177 65.0153 88.6496 66.5872 99.4743C66.5872 99.8742 66.0689 100.2 65.7283 99.9039C65.4483 99.6347 65.3249 99.2715 65.2043 98.9167C65.1591 98.7837 65.1143 98.6517 65.0618 98.5264L64.6027 97.1343C64.4531 96.7179 64.8886 96.4478 65.2098 96.5513C64.5801 92.8501 63.7113 89.1456 62.8472 85.4616C62.3976 83.5451 61.9494 81.6341 61.5369 79.732C59.7744 72.223 57.9528 64.7289 56.0273 57.2792C55.7904 56.361 57.2122 55.9462 57.464 56.9089L57.4492 56.8941Z" fill="#3A4B3C"/>
<path d="M35.974 47.4154C34.567 46.6157 33.6043 45.1641 33.0119 43.6979H32.9971C32.8341 43.2685 32.301 43.1056 31.9159 43.3425C30.3016 44.1275 35.2631 48.6151 36.0776 47.8005C36.1377 47.7104 36.1301 47.6001 36.0777 47.5152C36.0526 47.4743 36.0172 47.4394 35.974 47.4154Z" fill="#3A4B3C"/>
<path d="M34.9521 42.3946C35.041 43.4463 35.6334 44.7496 36.4184 45.4901C36.5516 45.6234 36.5664 45.8455 36.4184 45.9788C36.3523 46.0448 36.2679 46.0831 36.183 46.0889C36.1156 46.0934 36.0478 46.0773 35.9888 46.0381C35.3668 45.653 34.8928 45.1347 34.4782 44.5719C34.0634 44.0091 33.708 43.4018 33.4859 42.6316C33.2192 41.5801 34.878 41.3135 34.9521 42.3946Z" fill="#3A4B3C"/>
</svg>
