<svg width="198" height="40" viewBox="0 0 198 40" fill="none" xmlns="http://www.w3.org/2000/svg">
<path d="M62.5243 30.0942C60.6556 30.0942 59.2181 29.7707 58.2118 29.1238C57.2055 28.459 56.7024 27.4887 56.7024 26.2129C56.7024 25.566 56.918 25.0359 57.3493 24.6226C57.7985 24.1913 58.3735 23.9757 59.0743 23.9757C59.5415 23.9937 59.8649 24.1105 60.0446 24.3261C60.2423 24.5417 60.3411 24.7035 60.3411 24.8113C60.3411 24.8472 60.2603 24.9101 60.0985 25C59.9368 25.0718 59.7751 25.2156 59.6134 25.4312C59.4516 25.6289 59.3708 25.9433 59.3708 26.3746C59.3708 27.1832 59.6224 27.8301 60.1255 28.3152C60.6286 28.7824 61.4282 29.016 62.5243 29.016C63.297 29.016 63.9529 28.8723 64.4919 28.5848C65.049 28.2793 65.4713 27.893 65.7588 27.4258C66.0463 26.9406 66.19 26.4465 66.19 25.9433C66.19 25.1886 65.9744 24.5687 65.5431 24.0835C65.1119 23.5984 64.5459 23.1851 63.8451 22.8437C63.1622 22.4843 62.4345 22.1429 61.6618 21.8194C60.8892 21.496 60.1524 21.1276 59.4516 20.7144C58.7688 20.3011 58.2028 19.7889 57.7536 19.178C57.3044 18.5491 57.0708 17.7674 57.0528 16.833C57.0348 15.701 57.2774 14.7846 57.7805 14.0838C58.2837 13.365 58.9845 12.8439 59.8829 12.5205C60.7814 12.1791 61.7786 12.0084 62.8747 12.0084C63.6833 12.0084 64.474 12.1252 65.2466 12.3588C66.0373 12.5924 66.6842 12.9607 67.1873 13.4639C67.7084 13.949 67.9689 14.5959 67.9689 15.4045C67.9689 16.0514 67.7443 16.5905 67.2951 17.0217C66.8639 17.435 66.2978 17.6417 65.597 17.6417C65.1298 17.6057 64.7974 17.4889 64.5998 17.2913C64.4201 17.0756 64.3302 16.9139 64.3302 16.8061C64.3302 16.7522 64.438 16.6893 64.6537 16.6174C64.8693 16.5276 65.0849 16.3838 65.3006 16.1862C65.5162 15.9705 65.624 15.6561 65.624 15.2428C65.624 14.56 65.3634 14.0389 64.8423 13.6795C64.3212 13.3021 63.6744 13.1135 62.9017 13.1135C61.7337 13.1135 60.8802 13.392 60.3411 13.949C59.82 14.4881 59.5595 15.099 59.5595 15.7819C59.5595 16.4467 59.7392 16.9858 60.0985 17.3991C60.4579 17.8124 60.997 18.2167 61.7157 18.612C62.5243 19.0432 63.3419 19.4475 64.1685 19.8249C64.9951 20.1843 65.7588 20.5886 66.4596 21.0378C67.1783 21.487 67.7533 22.053 68.1846 22.7359C68.6158 23.4007 68.8315 24.2632 68.8315 25.3234C68.8315 26.2398 68.544 27.0574 67.9689 27.7762C67.4119 28.4949 66.6572 29.0609 65.7049 29.4742C64.7525 29.8875 63.6923 30.0942 62.5243 30.0942Z" fill="#2E2E2E"/>
<path d="M77.4814 29.8785C76.0978 29.8785 74.9298 29.582 73.9775 28.9891C73.0431 28.3961 72.3423 27.6055 71.8751 26.6172C71.4079 25.6289 71.1743 24.5507 71.1743 23.3827C71.1743 22.5921 71.3091 21.8284 71.5786 21.0917C71.8661 20.337 72.2704 19.6542 72.7915 19.0432C73.3126 18.4143 73.9415 17.9202 74.6783 17.5608C75.415 17.2014 76.2505 17.0217 77.1849 17.0217C78.8381 17.0217 80.0779 17.453 80.9045 18.3155C81.7491 19.16 82.2342 20.2382 82.36 21.5499C82.36 22.1788 82.1803 22.5921 81.8209 22.7898C81.4795 22.9874 81.0303 23.0863 80.4732 23.0863H73.9236C73.9236 24.1285 74.0673 25.0628 74.3548 25.8894C74.6423 26.698 75.0915 27.3449 75.7025 27.8301C76.3314 28.2973 77.158 28.5309 78.1822 28.5309C78.9369 28.5309 79.5838 28.3691 80.1229 28.0457C80.6619 27.7223 81.183 27.1562 81.6862 26.3476C81.8299 26.1679 82.0276 26.159 82.2791 26.3207C82.4229 26.3926 82.5127 26.5093 82.5487 26.6711C82.5846 26.8148 82.5666 26.9406 82.4948 27.0484C81.9377 27.9289 81.2369 28.6207 80.3924 29.1238C79.5478 29.627 78.5775 29.8785 77.4814 29.8785ZM73.9236 22.062H78.317C78.7482 22.062 79.0896 21.9812 79.3412 21.8194C79.6107 21.6398 79.7545 21.3433 79.7725 20.93C79.7725 20.1573 79.5568 19.4745 79.1256 18.8815C78.7123 18.2706 78.0654 17.9651 77.1849 17.9651C76.2865 17.9651 75.5318 18.3245 74.9208 19.0432C74.3279 19.762 73.9954 20.7683 73.9236 22.062Z" fill="#2E2E2E"/>
<path d="M84.9193 29.636C84.7935 29.636 84.6857 29.582 84.5959 29.4742C84.524 29.3484 84.4881 29.2227 84.4881 29.0969C84.524 28.8273 84.5959 28.6836 84.7037 28.6656C84.8115 28.6297 84.9552 28.6117 85.1349 28.6117C85.6381 28.6117 85.9795 28.5309 86.1592 28.3691C86.3389 28.1894 86.4377 27.9559 86.4557 27.6683C86.4916 27.3808 86.5096 27.0844 86.5096 26.7789V20.6065C86.5096 20.2831 86.4916 19.9866 86.4557 19.7171C86.4377 19.4296 86.3389 19.205 86.1592 19.0432C85.9795 18.8635 85.6381 18.7737 85.1349 18.7737C84.9732 18.7737 84.8205 18.7557 84.6767 18.7198C84.5509 18.6659 84.4881 18.5042 84.4881 18.2346C84.4881 17.9651 84.6318 17.8034 84.9193 17.7495C85.7459 17.6237 86.3748 17.4979 86.8061 17.3721C87.2553 17.2463 87.5877 17.1385 87.8033 17.0487C88.0369 16.9588 88.2436 16.9049 88.4233 16.887C88.567 16.869 88.6838 16.8959 88.7737 16.9678C88.8815 17.0397 88.9354 17.1834 88.9354 17.3991V19.0702H89.0162C89.6272 18.4772 90.2561 17.992 90.903 17.6147C91.5499 17.2194 92.1428 17.0217 92.6819 17.0217C93.3108 17.0217 93.787 17.2553 94.1104 17.7225C94.4519 18.1897 94.6226 18.6839 94.6226 19.205C94.6226 19.6542 94.4788 20.0944 94.1913 20.5257C93.9038 20.939 93.4725 21.1456 92.8975 21.1456C92.61 21.1456 92.3764 21.0917 92.1967 20.9839C92.035 20.8581 91.9452 20.7683 91.9272 20.7144C91.9272 20.6784 92.0081 20.5706 92.1698 20.3909C92.3495 20.2112 92.4393 19.9866 92.4393 19.7171C92.4393 19.3936 92.3495 19.1331 92.1698 18.9354C92.0081 18.7378 91.7835 18.6389 91.496 18.6389C91.1905 18.6389 90.7952 18.7917 90.31 19.0971C89.8428 19.4026 89.3936 19.771 88.9623 20.2022V26.7789C88.9623 27.0844 88.9713 27.3808 88.9893 27.6683C89.0252 27.9559 89.133 28.1894 89.3127 28.3691C89.5104 28.5309 89.8608 28.6117 90.3639 28.6117C90.5256 28.6117 90.6604 28.6297 90.7682 28.6656C90.894 28.6836 90.9659 28.8273 90.9838 29.0969C90.9838 29.2227 90.9479 29.3484 90.876 29.4742C90.8042 29.582 90.6963 29.636 90.5526 29.636C90.0315 29.6 89.5463 29.5731 89.0971 29.5551C88.6658 29.5551 88.2076 29.5551 87.7225 29.5551C87.2373 29.5551 86.7791 29.5551 86.3478 29.5551C85.9166 29.5731 85.4404 29.6 84.9193 29.636Z" fill="#2E2E2E"/>
<path d="M102.355 29.8785C100.972 29.8785 99.8039 29.582 98.8515 28.9891C97.9171 28.3961 97.2163 27.6055 96.7491 26.6172C96.282 25.6289 96.0484 24.5507 96.0484 23.3827C96.0484 22.5921 96.1831 21.8284 96.4527 21.0917C96.7402 20.337 97.1445 19.6542 97.6656 19.0432C98.1867 18.4143 98.8156 17.9202 99.5523 17.5608C100.289 17.2014 101.125 17.0217 102.059 17.0217C103.712 17.0217 104.952 17.453 105.779 18.3155C106.623 19.16 107.108 20.2382 107.234 21.5499C107.234 22.1788 107.054 22.5921 106.695 22.7898C106.354 22.9874 105.904 23.0863 105.347 23.0863H98.7976C98.7976 24.1285 98.9414 25.0628 99.2289 25.8894C99.5164 26.698 99.9656 27.3449 100.577 27.8301C101.205 28.2973 102.032 28.5309 103.056 28.5309C103.811 28.5309 104.458 28.3691 104.997 28.0457C105.536 27.7223 106.057 27.1562 106.56 26.3476C106.704 26.1679 106.902 26.159 107.153 26.3207C107.297 26.3926 107.387 26.5093 107.423 26.6711C107.459 26.8148 107.441 26.9406 107.369 27.0484C106.812 27.9289 106.111 28.6207 105.266 29.1238C104.422 29.627 103.452 29.8785 102.355 29.8785ZM98.7976 22.062H103.191C103.622 22.062 103.964 21.9812 104.215 21.8194C104.485 21.6398 104.629 21.3433 104.647 20.93C104.647 20.1573 104.431 19.4745 104 18.8815C103.586 18.2706 102.939 17.9651 102.059 17.9651C101.161 17.9651 100.406 18.3245 99.7949 19.0432C99.2019 19.762 98.8695 20.7683 98.7976 22.062Z" fill="#2E2E2E"/>
<path d="M109.793 29.636C109.668 29.636 109.56 29.582 109.47 29.4742C109.398 29.3484 109.362 29.2227 109.362 29.0969C109.398 28.8273 109.47 28.6836 109.578 28.6656C109.686 28.6297 109.829 28.6117 110.009 28.6117C110.512 28.6117 110.854 28.5309 111.033 28.3691C111.213 28.1894 111.312 27.9559 111.33 27.6683C111.366 27.3808 111.384 27.0844 111.384 26.7789V20.6065C111.384 20.2831 111.366 19.9866 111.33 19.7171C111.312 19.4296 111.213 19.205 111.033 19.0432C110.854 18.8635 110.512 18.7737 110.009 18.7737C109.847 18.7737 109.695 18.7557 109.551 18.7198C109.425 18.6659 109.362 18.5042 109.362 18.2346C109.362 17.9651 109.506 17.8034 109.793 17.7495C110.62 17.6237 111.249 17.4979 111.68 17.3721C112.129 17.2463 112.462 17.1385 112.677 17.0487C112.911 16.9588 113.118 16.9049 113.297 16.887C113.441 16.869 113.558 16.8959 113.648 16.9678C113.756 17.0397 113.809 17.1834 113.809 17.3991V19.0971H113.89C114.25 18.7557 114.618 18.4323 114.995 18.1268C115.373 17.8034 115.813 17.5428 116.316 17.3452C116.837 17.1295 117.475 17.0217 118.23 17.0217C119.452 17.0217 120.422 17.3901 121.141 18.1268C121.86 18.8635 122.219 19.8339 122.219 21.0378V26.7789C122.219 27.0844 122.228 27.3808 122.246 27.6683C122.282 27.9559 122.39 28.1894 122.569 28.3691C122.767 28.5309 123.117 28.6117 123.62 28.6117C123.782 28.6117 123.917 28.6297 124.025 28.6656C124.151 28.6836 124.222 28.8273 124.24 29.0969C124.24 29.2227 124.204 29.3484 124.133 29.4742C124.061 29.582 123.953 29.636 123.809 29.636C123.288 29.6 122.803 29.5731 122.354 29.5551C121.922 29.5551 121.464 29.5551 120.979 29.5551C120.494 29.5551 120.036 29.5551 119.604 29.5551C119.173 29.5731 118.697 29.6 118.176 29.636C118.05 29.636 117.942 29.582 117.852 29.4742C117.781 29.3484 117.745 29.2227 117.745 29.0969C117.763 28.8273 117.826 28.6836 117.933 28.6656C118.059 28.6297 118.203 28.6117 118.365 28.6117C118.868 28.6117 119.209 28.5309 119.389 28.3691C119.586 28.1894 119.694 27.9559 119.712 27.6683C119.748 27.3808 119.766 27.0844 119.766 26.7789V21.0647C119.766 20.4718 119.631 19.9866 119.362 19.6093C119.11 19.2319 118.787 18.9534 118.392 18.7737C117.996 18.594 117.592 18.5042 117.179 18.5042C116.568 18.5042 116.029 18.621 115.561 18.8546C115.094 19.0702 114.717 19.3218 114.429 19.6093C114.142 19.8968 113.944 20.1483 113.836 20.364V26.7789C113.836 27.0844 113.845 27.3808 113.863 27.6683C113.899 27.9559 114.007 28.1894 114.187 28.3691C114.384 28.5309 114.735 28.6117 115.238 28.6117C115.4 28.6117 115.534 28.6297 115.642 28.6656C115.768 28.6836 115.84 28.8273 115.858 29.0969C115.858 29.2227 115.822 29.3484 115.75 29.4742C115.678 29.582 115.57 29.636 115.427 29.636C114.906 29.6 114.42 29.5731 113.971 29.5551C113.54 29.5551 113.082 29.5551 112.597 29.5551C112.111 29.5551 111.653 29.5551 111.222 29.5551C110.791 29.5731 110.314 29.6 109.793 29.636Z" fill="#2E2E2E"/>
<path d="M131.915 29.8785C130.531 29.8785 129.363 29.582 128.411 28.9891C127.476 28.3961 126.776 27.6055 126.308 26.6172C125.841 25.6289 125.608 24.5507 125.608 23.3827C125.608 22.5921 125.742 21.8284 126.012 21.0917C126.299 20.337 126.704 19.6542 127.225 19.0432C127.746 18.4143 128.375 17.9202 129.112 17.5608C129.848 17.2014 130.684 17.0217 131.618 17.0217C133.271 17.0217 134.511 17.453 135.338 18.3155C136.182 19.16 136.668 20.2382 136.793 21.5499C136.793 22.1788 136.614 22.5921 136.254 22.7898C135.913 22.9874 135.464 23.0863 134.907 23.0863H128.357C128.357 24.1285 128.501 25.0628 128.788 25.8894C129.076 26.698 129.525 27.3449 130.136 27.8301C130.765 28.2973 131.591 28.5309 132.616 28.5309C133.37 28.5309 134.017 28.3691 134.556 28.0457C135.095 27.7223 135.616 27.1562 136.12 26.3476C136.263 26.1679 136.461 26.159 136.713 26.3207C136.856 26.3926 136.946 26.5093 136.982 26.6711C137.018 26.8148 137 26.9406 136.928 27.0484C136.371 27.9289 135.67 28.6207 134.826 29.1238C133.981 29.627 133.011 29.8785 131.915 29.8785ZM128.357 22.062H132.75C133.182 22.062 133.523 21.9812 133.775 21.8194C134.044 21.6398 134.188 21.3433 134.206 20.93C134.206 20.1573 133.99 19.4745 133.559 18.8815C133.146 18.2706 132.499 17.9651 131.618 17.9651C130.72 17.9651 129.965 18.3245 129.354 19.0432C128.761 19.762 128.429 20.7683 128.357 22.062Z" fill="#2E2E2E"/>
<path d="M145.651 29.636C145.489 29.636 145.372 29.5731 145.3 29.4473C145.228 29.3215 145.192 29.1867 145.192 29.043C145.21 28.7375 145.282 28.5668 145.408 28.5309C145.534 28.4949 145.686 28.477 145.866 28.477C146.441 28.477 146.845 28.3781 147.079 28.1805C147.313 27.9648 147.456 27.7043 147.51 27.3988C147.582 27.0754 147.618 26.7429 147.618 26.4015V15.701C147.618 15.3596 147.582 15.0362 147.51 14.7307C147.456 14.4072 147.313 14.1467 147.079 13.949C146.845 13.7334 146.441 13.6256 145.866 13.6256C145.686 13.6256 145.534 13.6076 145.408 13.5717C145.282 13.5357 145.21 13.365 145.192 13.0596C145.192 12.9158 145.228 12.781 145.3 12.6553C145.372 12.5295 145.489 12.4666 145.651 12.4666C146.244 12.4846 146.792 12.5025 147.295 12.5205C147.798 12.5385 148.319 12.5474 148.858 12.5474C149.954 12.5474 151.077 12.5205 152.227 12.4666C152.407 12.4666 152.533 12.5295 152.605 12.6553C152.676 12.781 152.712 12.9158 152.712 13.0596C152.694 13.365 152.622 13.5357 152.497 13.5717C152.371 13.6076 152.218 13.6256 152.039 13.6256C151.481 13.6256 151.077 13.7334 150.826 13.949C150.592 14.1467 150.448 14.4072 150.394 14.7307C150.34 15.0362 150.304 15.3596 150.287 15.701V26.8058C150.304 27.0394 150.34 27.291 150.394 27.5605C150.448 27.8301 150.601 28.0547 150.853 28.2344C151.122 28.4141 151.562 28.4949 152.173 28.477H154.599C155.228 28.459 155.704 28.3602 156.028 28.1805C156.369 27.9828 156.639 27.6594 156.836 27.2101C157.034 26.7609 157.25 26.141 157.483 25.3503C157.555 25.1707 157.672 25.0539 157.834 25C158.013 24.946 158.202 24.9371 158.4 24.973C158.543 24.991 158.687 25.0539 158.831 25.1617C158.993 25.2695 159.064 25.4132 159.046 25.5929L158.507 28.9891C158.453 29.2406 158.364 29.4024 158.238 29.4742C158.13 29.5281 157.959 29.5551 157.726 29.5551H148.885C148.346 29.5551 147.816 29.5551 147.295 29.5551C146.792 29.5731 146.244 29.6 145.651 29.636Z" fill="#2E2E2E"/>
<path d="M166.844 29.8785C165.46 29.8785 164.292 29.582 163.34 28.9891C162.405 28.3961 161.705 27.6055 161.237 26.6172C160.77 25.6289 160.537 24.5507 160.537 23.3827C160.537 22.5921 160.671 21.8284 160.941 21.0917C161.228 20.337 161.633 19.6542 162.154 19.0432C162.675 18.4143 163.304 17.9202 164.041 17.5608C164.777 17.2014 165.613 17.0217 166.547 17.0217C168.2 17.0217 169.44 17.453 170.267 18.3155C171.111 19.16 171.597 20.2382 171.722 21.5499C171.722 22.1788 171.543 22.5921 171.183 22.7898C170.842 22.9874 170.393 23.0863 169.836 23.0863H163.286C163.286 24.1285 163.43 25.0628 163.717 25.8894C164.005 26.698 164.454 27.3449 165.065 27.8301C165.694 28.2973 166.52 28.5309 167.545 28.5309C168.299 28.5309 168.946 28.3691 169.485 28.0457C170.024 27.7223 170.545 27.1562 171.049 26.3476C171.192 26.1679 171.39 26.159 171.641 26.3207C171.785 26.3926 171.875 26.5093 171.911 26.6711C171.947 26.8148 171.929 26.9406 171.857 27.0484C171.3 27.9289 170.599 28.6207 169.755 29.1238C168.91 29.627 167.94 29.8785 166.844 29.8785ZM163.286 22.062H167.679C168.111 22.062 168.452 21.9812 168.704 21.8194C168.973 21.6398 169.117 21.3433 169.135 20.93C169.135 20.1573 168.919 19.4745 168.488 18.8815C168.075 18.2706 167.428 17.9651 166.547 17.9651C165.649 17.9651 164.894 18.3245 164.283 19.0432C163.69 19.762 163.358 20.7683 163.286 22.062Z" fill="#2E2E2E"/>
<path d="M177.489 29.8785C176.393 29.8785 175.513 29.5641 174.848 28.9352C174.201 28.3062 173.877 27.5515 173.877 26.6711C173.877 25.7547 174.111 25.0359 174.578 24.5148C175.063 23.9937 175.692 23.6074 176.465 23.3558C177.256 23.1042 178.109 22.9335 179.025 22.8437C179.96 22.7538 180.867 22.682 181.748 22.628V20.4987C181.748 19.6542 181.532 18.9983 181.101 18.5311C180.688 18.046 179.978 17.8034 178.972 17.8034C178.468 17.8034 177.992 17.9651 177.543 18.2885C177.112 18.612 176.896 19.0792 176.896 19.6901C176.896 19.9776 176.968 20.2202 177.112 20.4179C177.256 20.6155 177.399 20.7683 177.543 20.8761C177.687 20.9839 177.759 21.0558 177.759 21.0917C177.759 21.1636 177.651 21.2983 177.435 21.496C177.238 21.6757 176.959 21.7655 176.6 21.7655C176.043 21.7655 175.611 21.5589 175.306 21.1456C175 20.7323 174.848 20.2741 174.848 19.771C174.848 19.0882 175.054 18.5491 175.468 18.1538C175.899 17.7585 176.447 17.4709 177.112 17.2913C177.777 17.1116 178.45 17.0217 179.133 17.0217C179.942 17.0217 180.724 17.1206 181.478 17.3182C182.251 17.5159 182.88 17.8932 183.365 18.4503C183.868 19.0073 184.12 19.8429 184.12 20.9569V27.2371C184.138 27.4168 184.183 27.6324 184.254 27.884C184.326 28.1355 184.461 28.3602 184.659 28.5578C184.874 28.7375 185.162 28.8273 185.521 28.8273C185.647 28.8273 185.746 28.8543 185.818 28.9082C185.89 28.9441 185.926 29.0609 185.926 29.2586C185.926 29.4203 185.836 29.5461 185.656 29.636C185.476 29.7258 185.27 29.7887 185.036 29.8246C184.802 29.8606 184.605 29.8785 184.443 29.8785C183.778 29.8785 183.185 29.6899 182.664 29.3125C182.143 28.9172 181.838 28.3781 181.748 27.6953C181.352 28.4141 180.759 28.9621 179.969 29.3395C179.196 29.6988 178.37 29.8785 177.489 29.8785ZM178.352 28.423C178.963 28.423 179.52 28.2703 180.023 27.9648C180.544 27.6594 180.957 27.2461 181.263 26.725C181.586 26.1859 181.748 25.5929 181.748 24.946V23.4097C179.897 23.5355 178.576 23.832 177.786 24.2992C176.995 24.7664 176.6 25.53 176.6 26.5902C176.6 27.8121 177.184 28.423 178.352 28.423Z" fill="#2E2E2E"/>
<path d="M188.027 29.636C187.884 29.636 187.776 29.582 187.704 29.4742C187.632 29.3484 187.596 29.2227 187.596 29.0969C187.614 28.8273 187.677 28.6836 187.785 28.6656C187.893 28.6297 188.036 28.6117 188.216 28.6117C188.719 28.6117 189.061 28.5309 189.24 28.3691C189.438 28.1894 189.546 27.9559 189.564 27.6683C189.582 27.3808 189.591 27.0844 189.591 26.7789V18.3964H187.785C187.641 18.3964 187.524 18.3424 187.434 18.2346C187.362 18.1088 187.326 17.9831 187.326 17.8573C187.344 17.5698 187.407 17.417 187.515 17.3991C187.641 17.3631 187.794 17.3452 187.973 17.3452H189.591V16.2131C189.591 15.0092 189.779 13.94 190.157 13.0057C190.534 12.0713 191.091 11.3256 191.828 10.7685C192.582 10.2115 193.499 9.92397 194.577 9.90601C195.134 9.90601 195.673 10.0138 196.194 10.2294C196.715 10.4451 197.147 10.7505 197.488 11.1459C197.829 11.5232 198 11.9904 198 12.5474C198 13.0506 197.847 13.5178 197.542 13.949C197.236 14.3623 196.796 14.569 196.221 14.569C195.844 14.569 195.547 14.4701 195.332 14.2725C195.134 14.0748 195.035 13.94 195.035 13.8682C195.035 13.8143 195.107 13.7334 195.251 13.6256C195.413 13.4998 195.565 13.3201 195.709 13.0865C195.871 12.8529 195.952 12.5654 195.952 12.224C195.952 11.8287 195.799 11.4963 195.493 11.2267C195.206 10.9392 194.838 10.7955 194.388 10.7955C193.795 10.7955 193.337 10.9752 193.014 11.3345C192.69 11.6939 192.466 12.1431 192.34 12.6822C192.214 13.2213 192.133 13.7693 192.097 14.3264C192.079 14.8834 192.07 15.3506 192.07 15.728V17.3452H194.712C194.891 17.3452 195.044 17.3631 195.17 17.3991C195.296 17.417 195.368 17.5698 195.386 17.8573C195.386 17.9831 195.341 18.1088 195.251 18.2346C195.179 18.3424 195.071 18.3964 194.927 18.3964H192.07V26.7789C192.07 27.3 192.106 27.6953 192.178 27.9648C192.268 28.2344 192.448 28.4141 192.717 28.5039C193.005 28.5758 193.427 28.6117 193.984 28.6117C194.164 28.6117 194.307 28.6297 194.415 28.6656C194.523 28.6836 194.586 28.8273 194.604 29.0969C194.604 29.2227 194.568 29.3484 194.496 29.4742C194.442 29.582 194.343 29.636 194.2 29.636C193.679 29.6 193.104 29.5731 192.475 29.5551C191.846 29.5551 191.298 29.5551 190.83 29.5551C190.345 29.5551 189.887 29.5551 189.456 29.5551C189.025 29.5731 188.548 29.6 188.027 29.636Z" fill="#2E2E2E"/>
<path fill-rule="evenodd" clip-rule="evenodd" d="M48.5862 8.19768C45.9694 14.4173 44.7937 18.3321 43.9804 21.2959C43.8605 21.733 43.7494 22.1452 43.6436 22.5376C43.0255 24.8306 42.5905 26.4442 41.6476 28.3775C39.5675 32.6423 36.0479 34.9986 32.4995 36.1627C28.9659 37.322 25.5198 37.2585 23.6681 36.7767C21.5224 32.7662 19.6732 24.7302 26.5964 16.1208C32.9693 8.19566 43.3706 7.45935 48.5862 8.19768ZM49.1433 5.55509C43.5581 4.71608 31.805 5.34245 24.4959 14.4317C16.7106 24.1132 18.7757 33.4002 21.3303 38.1203C21.6413 38.6948 22.1755 39.1621 22.8638 39.3515C25.2615 40.0115 29.3056 40.0472 33.3397 38.7238C37.4164 37.3863 41.6023 34.619 44.0702 29.559C45.1338 27.3782 45.6388 25.5002 46.2553 23.2072C46.3592 22.8208 46.4663 22.4226 46.5797 22.0091C47.3706 19.1268 48.516 15.3054 51.103 9.16605C51.7192 7.70351 50.9424 5.82536 49.1433 5.55509Z" fill="#2E2E2E"/>
<path d="M7.33118 16.2145C6.51791 13.2507 5.34227 9.33588 2.72546 3.11626C7.941 2.37794 18.3423 3.11424 24.7153 11.0394C25.177 11.6136 25.5997 12.1852 25.9859 12.7533C26.6341 12.0914 27.3079 11.4842 28.0014 10.9276C27.6343 10.4035 27.2396 9.87749 26.8157 9.35033C19.5066 0.26103 7.75352 -0.365336 2.16834 0.47368C0.369239 0.743943 -0.407604 2.6221 0.208665 4.08463C2.7956 10.224 3.94102 14.0454 4.73191 16.9277C4.84535 17.3411 4.95241 17.7393 5.05631 18.1257C5.67284 20.4188 6.17779 22.2968 7.24144 24.4776C9.70936 29.5376 13.8953 32.3049 17.972 33.6424C18.5648 33.8368 19.1578 34.002 19.7458 34.1401C19.4935 33.2233 19.2924 32.2376 19.1674 31.1939C19.0491 31.1577 18.9307 31.1202 18.8122 31.0813C15.2637 29.9172 11.7441 27.5609 9.66401 23.2961C8.72109 21.3628 8.28612 19.7492 7.668 17.4561C7.56224 17.0638 7.45112 16.6516 7.33118 16.2145Z" fill="#2E2E2E"/>
<path d="M21.3815 19.2194C20.7442 20.4817 20.2554 21.7246 19.8926 22.938C19.4131 21.3567 18.8188 19.8365 17.8236 18.363C16.57 16.5068 14.6231 14.6444 11.2997 12.9048C10.6403 12.5596 10.3855 11.7452 10.7307 11.0858C11.0759 10.4264 11.8902 10.1716 12.5497 10.5168C16.2116 12.4336 18.52 14.5781 20.0573 16.8545C20.588 17.6403 21.0198 18.4321 21.3815 19.2194Z" fill="#2E2E2E"/>
<path d="M23.0099 39.3905C25.4321 37.9334 26.9727 36.2329 28.0371 34.3649C29.0948 32.5087 29.661 30.5056 30.1899 28.6346C30.2685 28.3566 30.3463 28.0813 30.4247 27.8101C31.0459 25.6615 31.7357 23.6174 33.1528 21.6488C34.5606 19.693 36.7509 17.7269 40.4881 15.8916C41.1562 15.5636 41.4318 14.756 41.1037 14.0879C40.7756 13.4198 39.9681 13.1442 39.3 13.4723C35.236 15.468 32.6742 17.7001 30.9652 20.0741C29.2655 22.4354 28.4739 24.8527 27.8354 27.0615C27.7505 27.3549 27.6688 27.6427 27.5885 27.9253C27.0503 29.8197 26.5785 31.4805 25.6953 33.0304C24.7868 34.6247 23.4181 36.1259 20.9837 37.4443C21.0976 37.6789 21.2135 37.9043 21.3303 38.1203C21.6413 38.6948 22.1755 39.1621 22.8638 39.3515C22.9119 39.3648 22.9606 39.3777 23.0099 39.3905Z" fill="#2E2E2E"/>
</svg>
